solid tool 2
facet normal 8.809637197311571e-16 -1.0 6.809171477245716e-16
  outer loop
    vertex 0.0 -18.000000000000018 1.127986593019159e-14
    vertex -19.359339206567004 -18.000000000000007 25.29395154035769
    vertex -11.20000000000001 -18.000000000000018 0.0
  endloop
endfacet
facet normal 8.809637197311571e-16 -1.0 6.809171477245716e-16
  outer loop
    vertex -19.359339206567004 -18.000000000000007 25.29395154035769
    vertex 0.0 -18.000000000000018 1.127986593019159e-14
    vertex 2.1951927091769594 -17.999999999999996 4.974902601551413
  endloop
endfacet
facet normal 8.809637197311571e-16 -1.0 6.809171477245716e-16
  outer loop
    vertex -19.359339206567004 -18.000000000000007 25.29395154035769
    vertex 2.1951927091769594 -17.999999999999996 4.974902601551413
    vertex -6.2000000000000055 -17.999999999999996 31.000000000000004
  endloop
endfacet
facet normal 8.809637197311571e-16 -1.0 6.809171477245716e-16
  outer loop
    vertex -19.359339206567004 -18.000000000000007 25.29395154035769
    vertex -6.2000000000000055 -17.999999999999996 31.000000000000004
    vertex -19.359339206567004 -18.000000000000007 30.999999999999993
  endloop
endfacet
facet normal 4.2605196252005376e-16 -8.797698189991637e-16 -1.0
  outer loop
    vertex 0.0 0.0 0.0
    vertex -26.199999999999996 -3.000000000000017 -3.3839597790574766e-14
    vertex -26.199999999999996 0.0 0.0
  endloop
endfacet
facet normal 4.2605196252005376e-16 -8.797698189991637e-16 -1.0
  outer loop
    vertex -26.199999999999996 -3.000000000000017 -3.3839597790574766e-14
    vertex 0.0 0.0 0.0
    vertex -1.200000000000009 -3.000000000000017 -2.255973186038318e-14
  endloop
endfacet
facet normal 4.2605196252005376e-16 -8.797698189991637e-16 -1.0
  outer loop
    vertex -1.200000000000009 -3.000000000000017 -2.255973186038318e-14
    vertex 0.0 0.0 0.0
    vertex -1.200000000000009 -15.000000000000012 1.127986593019159e-14
  endloop
endfacet
facet normal 4.2605196252005376e-16 -8.797698189991637e-16 -1.0
  outer loop
    vertex -1.200000000000009 -15.000000000000012 1.127986593019159e-14
    vertex -11.20000000000001 -18.000000000000018 0.0
    vertex -11.20000000000001 -15.000000000000012 0.0
  endloop
endfacet
facet normal 4.2605196252005376e-16 -8.797698189991637e-16 -1.0
  outer loop
    vertex -11.20000000000001 -18.000000000000018 0.0
    vertex -1.200000000000009 -15.000000000000012 1.127986593019159e-14
    vertex 0.0 -18.000000000000018 1.127986593019159e-14
  endloop
endfacet
facet normal 4.2605196252005376e-16 -8.797698189991637e-16 -1.0
  outer loop
    vertex 0.0 -18.000000000000018 1.127986593019159e-14
    vertex -1.200000000000009 -15.000000000000012 1.127986593019159e-14
    vertex 0.0 0.0 0.0
  endloop
endfacet
facet normal 0.9148918062735855 -8.243073413711399e-16 -0.40369912411777165
  outer loop
    vertex 0.0 0.0 0.0
    vertex 2.1951927091769594 -17.999999999999996 4.974902601551413
    vertex 0.0 -18.000000000000018 1.127986593019159e-14
  endloop
endfacet
facet normal 0.9148918062735855 -8.243073413711399e-16 -0.40369912411777165
  outer loop
    vertex 2.1951927091769594 -17.999999999999996 4.974902601551413
    vertex 0.0 0.0 0.0
    vertex 2.195192709176982 -1.127986593019159e-14 4.974902601551402
  endloop
endfacet
facet normal 0.965925826289068 -9.744193748429535e-16 0.2588190451025224
  outer loop
    vertex -32.67224318643356 -1.127986593019159e-14 24.150000000000002
    vertex -32.90000000000002 -3.0000000000000058 24.99999999999999
    vertex -32.67224318643356 -3.0000000000000058 24.149999999999988
  endloop
endfacet
facet normal 0.965925826289068 -9.744193748429535e-16 0.2588190451025224
  outer loop
    vertex -32.90000000000002 -3.0000000000000058 24.99999999999999
    vertex -32.67224318643356 -1.127986593019159e-14 24.150000000000002
    vertex -32.90000000000002 -5.639932965095795e-15 25.0
  endloop
endfacet
facet normal -1.629664048056038e-16 1.0 2.871619957868118e-16
  outer loop
    vertex -41.2 -15.000000000000023 30.999999999999993
    vertex -41.2 -15.000000000000012 0.0
    vertex -51.20000000000002 -15.000000000000012 -1.127986593019159e-14
  endloop
endfacet
facet normal -1.629664048056038e-16 1.0 2.871619957868118e-16
  outer loop
    vertex -41.2 -15.000000000000012 0.0
    vertex -41.2 -15.000000000000023 30.999999999999993
    vertex -33.04066079343302 -15.000000000000023 25.293951540357675
  endloop
endfacet
facet normal -1.629664048056038e-16 1.0 2.871619957868118e-16
  outer loop
    vertex -33.04066079343302 -15.000000000000023 25.293951540357675
    vertex -41.2 -15.000000000000023 30.999999999999993
    vertex -33.04066079343302 -15.000000000000012 30.999999999999993
  endloop
endfacet
facet normal 0.9659258262890671 4.916467128964024e-16 -0.2588190451025256
  outer loop
    vertex -32.90000000000002 -5.639932965095795e-15 25.0
    vertex -32.67224318643356 -3.0 25.84999999999998
    vertex -32.90000000000002 -3.0000000000000058 24.99999999999999
  endloop
endfacet
facet normal 0.9659258262890671 4.916467128964024e-16 -0.2588190451025256
  outer loop
    vertex -32.67224318643356 -3.0 25.84999999999998
    vertex -32.90000000000002 -5.639932965095795e-15 25.0
    vertex -32.67224318643356 -5.639932965095795e-15 25.84999999999998
  endloop
endfacet
facet normal -0.2588190451025224 7.262404699857213e-15 0.965925826289068
  outer loop
    vertex -30.350000000000012 -3.0000000000000115 4.527756813566447
    vertex -31.20000000000001 -1.6919798895287383e-14 4.299999999999969
    vertex -31.20000000000001 -3.0 4.3000000000000025
  endloop
endfacet
facet normal -0.2588190451025224 7.262404699857213e-15 0.965925826289068
  outer loop
    vertex -31.20000000000001 -1.6919798895287383e-14 4.299999999999969
    vertex -30.350000000000012 -3.0000000000000115 4.527756813566447
    vertex -30.350000000000012 -1.127986593019159e-14 4.527756813566436
  endloop
endfacet
facet normal -4.062192602180957e-16 3.4477663299098123e-16 1.0
  outer loop
    vertex -6.2000000000000055 -17.999999999999996 31.000000000000004
    vertex -19.359339206567004 -15.000000000000012 30.999999999999993
    vertex -19.359339206567004 -18.000000000000007 30.999999999999993
  endloop
endfacet
facet normal -4.062192602180957e-16 3.4477663299098123e-16 1.0
  outer loop
    vertex -19.359339206567004 -15.000000000000012 30.999999999999993
    vertex -6.2000000000000055 -17.999999999999996 31.000000000000004
    vertex -11.200000000000005 -15.000000000000012 30.999999999999993
  endloop
endfacet
facet normal -4.062192602180957e-16 3.4477663299098123e-16 1.0
  outer loop
    vertex -11.200000000000005 -15.000000000000012 30.999999999999993
    vertex -6.2000000000000055 -17.999999999999996 31.000000000000004
    vertex -11.200000000000005 -3.0 30.999999999999993
  endloop
endfacet
facet normal -4.062192602180957e-16 3.4477663299098123e-16 1.0
  outer loop
    vertex -11.200000000000005 -3.0 30.999999999999993
    vertex -26.20000000000001 -1.127986593019159e-14 30.999999999999982
    vertex -26.20000000000001 -3.0000000000000115 30.999999999999993
  endloop
endfacet
facet normal -4.062192602180957e-16 3.4477663299098123e-16 1.0
  outer loop
    vertex -26.20000000000001 -1.127986593019159e-14 30.999999999999982
    vertex -11.200000000000005 -3.0 30.999999999999993
    vertex -6.2000000000000055 0.0 30.999999999999993
  endloop
endfacet
facet normal -4.062192602180957e-16 3.4477663299098123e-16 1.0
  outer loop
    vertex -6.2000000000000055 0.0 30.999999999999993
    vertex -11.200000000000005 -3.0 30.999999999999993
    vertex -6.2000000000000055 -17.999999999999996 31.000000000000004
  endloop
endfacet
facet normal -0.9659258262890668 4.909916248885866e-16 -0.25881904510252696
  outer loop
    vertex -29.727756813566458 -2.8199664825478976e-14 6.850000000000001
    vertex -29.500000000000004 -2.9999999999999947 6.000000000000013
    vertex -29.727756813566458 -3.0000000000000058 6.850000000000001
  endloop
endfacet
facet normal -0.9659258262890668 4.909916248885866e-16 -0.25881904510252696
  outer loop
    vertex -29.500000000000004 -2.9999999999999947 6.000000000000013
    vertex -29.727756813566458 -2.8199664825478976e-14 6.850000000000001
    vertex -29.500000000000004 -1.6919798895287383e-14 6.000000000000025
  endloop
endfacet
facet normal -0.951708617760551 -5.764669786611894e-16 -0.30700277992275843
  outer loop
    vertex -19.359339206567004 -18.000000000000007 25.29395154035769
    vertex -11.20000000000001 -15.000000000000012 0.0
    vertex -11.20000000000001 -18.000000000000018 0.0
  endloop
endfacet
facet normal -0.951708617760551 -5.764669786611894e-16 -0.30700277992275843
  outer loop
    vertex -11.20000000000001 -15.000000000000012 0.0
    vertex -19.359339206567004 -18.000000000000007 25.29395154035769
    vertex -19.359339206567004 -15.000000000000012 25.293951540357675
  endloop
endfacet
facet normal 0.951708617760551 -4.924784122337172e-16 -0.30700277992275804
  outer loop
    vertex -41.2 -15.000000000000012 0.0
    vertex -33.04066079343302 -18.000000000000018 25.29395154035769
    vertex -41.2 -18.000000000000018 0.0
  endloop
endfacet
facet normal 0.951708617760551 -4.924784122337172e-16 -0.30700277992275804
  outer loop
    vertex -33.04066079343302 -18.000000000000018 25.29395154035769
    vertex -41.2 -15.000000000000012 0.0
    vertex -33.04066079343302 -15.000000000000023 25.293951540357675
  endloop
endfacet
facet normal -0.0 1.0 -0.0
  outer loop
    vertex -19.359339206567004 -15.000000000000012 25.293951540357675
    vertex -1.200000000000009 -15.000000000000012 1.127986593019159e-14
    vertex -11.20000000000001 -15.000000000000012 0.0
  endloop
endfacet
facet normal -0.0 1.0 -0.0
  outer loop
    vertex -1.200000000000009 -15.000000000000012 1.127986593019159e-14
    vertex -19.359339206567004 -15.000000000000012 25.293951540357675
    vertex -11.200000000000005 -15.000000000000012 30.999999999999993
  endloop
endfacet
facet normal -0.0 1.0 -0.0
  outer loop
    vertex -11.200000000000005 -15.000000000000012 30.999999999999993
    vertex -19.359339206567004 -15.000000000000012 25.293951540357675
    vertex -19.359339206567004 -15.000000000000012 30.999999999999993
  endloop
endfacet
facet normal -0.951708617760551 -4.47620882437248e-16 -0.3070027799227583
  outer loop
    vertex -11.200000000000005 -3.0 30.999999999999993
    vertex -1.200000000000009 -15.000000000000012 1.127986593019159e-14
    vertex -11.200000000000005 -15.000000000000012 30.999999999999993
  endloop
endfacet
facet normal -0.951708617760551 -4.47620882437248e-16 -0.3070027799227583
  outer loop
    vertex -1.200000000000009 -15.000000000000012 1.127986593019159e-14
    vertex -11.200000000000005 -3.0 30.999999999999993
    vertex -1.200000000000009 -3.000000000000017 -2.255973186038318e-14
  endloop
endfacet
facet normal 9.952822879580809e-17 -1.0 3.03222202424505e-16
  outer loop
    vertex -1.200000000000009 -3.000000000000017 -2.255973186038318e-14
    vertex -51.20000000000002 -3.000000000000017 -2.255973186038318e-14
    vertex -26.199999999999996 -3.000000000000017 -3.3839597790574766e-14
  endloop
endfacet
facet normal 9.952822879580809e-17 -1.0 3.03222202424505e-16
  outer loop
    vertex -51.20000000000002 -3.000000000000017 -2.255973186038318e-14
    vertex -1.200000000000009 -3.000000000000017 -2.255973186038318e-14
    vertex -21.200000000000003 -3.0 4.3000000000000025
  endloop
endfacet
facet normal 9.952822879580809e-17 -1.0 3.03222202424505e-16
  outer loop
    vertex -21.200000000000003 -3.0 4.3000000000000025
    vertex -1.200000000000009 -3.000000000000017 -2.255973186038318e-14
    vertex -20.350000000000005 -3.0000000000000115 4.527756813566447
  endloop
endfacet
facet normal 9.952822879580809e-17 -1.0 3.03222202424505e-16
  outer loop
    vertex -20.350000000000005 -3.0000000000000115 4.527756813566447
    vertex -1.200000000000009 -3.000000000000017 -2.255973186038318e-14
    vertex -19.727756813566458 -3.0000000000000115 5.150000000000001
  endloop
endfacet
facet normal 9.952822879580809e-17 -1.0 3.03222202424505e-16
  outer loop
    vertex -19.727756813566458 -3.0000000000000115 5.150000000000001
    vertex -1.200000000000009 -3.000000000000017 -2.255973186038318e-14
    vertex -11.200000000000005 -3.0 30.999999999999993
  endloop
endfacet
facet normal 9.952822879580809e-17 -1.0 3.03222202424505e-16
  outer loop
    vertex -19.727756813566458 -3.0000000000000115 5.150000000000001
    vertex -11.200000000000005 -3.0 30.999999999999993
    vertex -19.5 -2.9999999999999947 6.000000000000013
  endloop
endfacet
facet normal 9.952822879580809e-17 -1.0 3.03222202424505e-16
  outer loop
    vertex -19.5 -2.9999999999999947 6.000000000000013
    vertex -11.200000000000005 -3.0 30.999999999999993
    vertex -19.727756813566458 -3.0000000000000058 6.850000000000001
  endloop
endfacet
facet normal 9.952822879580809e-17 -1.0 3.03222202424505e-16
  outer loop
    vertex -19.727756813566458 -3.0000000000000058 6.850000000000001
    vertex -11.200000000000005 -3.0 30.999999999999993
    vertex -20.350000000000005 -3.0000000000000058 7.472243186433556
  endloop
endfacet
facet normal 9.952822879580809e-17 -1.0 3.03222202424505e-16
  outer loop
    vertex -20.350000000000005 -3.0000000000000058 7.472243186433556
    vertex -11.200000000000005 -3.0 30.999999999999993
    vertex -21.200000000000003 -3.0000000000000115 7.7
  endloop
endfacet
facet normal 9.952822879580809e-17 -1.0 3.03222202424505e-16
  outer loop
    vertex -21.200000000000003 -3.0000000000000115 7.7
    vertex -11.200000000000005 -3.0 30.999999999999993
    vertex -31.20000000000001 -3.0000000000000115 7.7
  endloop
endfacet
facet normal 9.952822879580809e-17 -1.0 3.03222202424505e-16
  outer loop
    vertex -31.20000000000001 -3.0000000000000115 7.7
    vertex -11.200000000000005 -3.0 30.999999999999993
    vertex -20.350000000000012 -3.0000000000000115 23.527756813566448
  endloop
endfacet
facet normal 9.952822879580809e-17 -1.0 3.03222202424505e-16
  outer loop
    vertex -31.20000000000001 -3.0000000000000115 7.7
    vertex -20.350000000000012 -3.0000000000000115 23.527756813566448
    vertex -21.20000000000001 -3.0000000000000058 23.29999999999999
  endloop
endfacet
facet normal 9.952822879580809e-17 -1.0 3.03222202424505e-16
  outer loop
    vertex -20.350000000000012 -3.0000000000000115 23.527756813566448
    vertex -11.200000000000005 -3.0 30.999999999999993
    vertex -19.72775681356646 -3.0000000000000058 24.149999999999988
  endloop
endfacet
facet normal 9.952822879580809e-17 -1.0 3.03222202424505e-16
  outer loop
    vertex -19.72775681356646 -3.0000000000000058 24.149999999999988
    vertex -11.200000000000005 -3.0 30.999999999999993
    vertex -19.500000000000007 -2.9999999999999947 25.0
  endloop
endfacet
facet normal 9.952822879580809e-17 -1.0 3.03222202424505e-16
  outer loop
    vertex -19.500000000000007 -2.9999999999999947 25.0
    vertex -11.200000000000005 -3.0 30.999999999999993
    vertex -19.72775681356646 -3.0 25.84999999999999
  endloop
endfacet
facet normal 9.952822879580809e-17 -1.0 3.03222202424505e-16
  outer loop
    vertex -19.72775681356646 -3.0 25.84999999999999
    vertex -11.200000000000005 -3.0 30.999999999999993
    vertex -20.350000000000012 -3.0000000000000115 26.472243186433534
  endloop
endfacet
facet normal 9.952822879580809e-17 -1.0 3.03222202424505e-16
  outer loop
    vertex -20.350000000000012 -3.0000000000000115 26.472243186433534
    vertex -11.200000000000005 -3.0 30.999999999999993
    vertex -21.20000000000001 -3.0000000000000115 26.699999999999992
  endloop
endfacet
facet normal 9.952822879580809e-17 -1.0 3.03222202424505e-16
  outer loop
    vertex -21.20000000000001 -3.0000000000000115 26.699999999999992
    vertex -11.200000000000005 -3.0 30.999999999999993
    vertex -31.20000000000001 -3.0000000000000115 26.699999999999992
  endloop
endfacet
facet normal 9.952822879580809e-17 -1.0 3.03222202424505e-16
  outer loop
    vertex -31.20000000000001 -3.0000000000000115 26.699999999999992
    vertex -11.200000000000005 -3.0 30.999999999999993
    vertex -41.2 -3.0000000000000115 30.999999999999982
  endloop
endfacet
facet normal 9.952822879580809e-17 -1.0 3.03222202424505e-16
  outer loop
    vertex -41.2 -3.0000000000000115 30.999999999999982
    vertex -11.200000000000005 -3.0 30.999999999999993
    vertex -26.20000000000001 -3.0000000000000115 30.999999999999993
  endloop
endfacet
facet normal 9.952822879580809e-17 -1.0 3.03222202424505e-16
  outer loop
    vertex -51.20000000000002 -3.000000000000017 -2.255973186038318e-14
    vertex -32.67224318643356 -3.000000000000017 5.150000000000001
    vertex -41.2 -3.0000000000000115 30.999999999999982
  endloop
endfacet
facet normal 9.952822879580809e-17 -1.0 3.03222202424505e-16
  outer loop
    vertex -32.67224318643356 -3.000000000000017 5.150000000000001
    vertex -51.20000000000002 -3.000000000000017 -2.255973186038318e-14
    vertex -32.05000000000001 -3.000000000000017 4.527756813566447
  endloop
endfacet
facet normal 9.952822879580809e-17 -1.0 3.03222202424505e-16
  outer loop
    vertex -32.05000000000001 -3.000000000000017 4.527756813566447
    vertex -51.20000000000002 -3.000000000000017 -2.255973186038318e-14
    vertex -31.20000000000001 -3.0 4.3000000000000025
  endloop
endfacet
facet normal 9.952822879580809e-17 -1.0 3.03222202424505e-16
  outer loop
    vertex -31.20000000000001 -3.0 4.3000000000000025
    vertex -51.20000000000002 -3.000000000000017 -2.255973186038318e-14
    vertex -21.200000000000003 -3.0 4.3000000000000025
  endloop
endfacet
facet normal 9.952822879580809e-17 -1.0 3.03222202424505e-16
  outer loop
    vertex -41.2 -3.0000000000000115 30.999999999999982
    vertex -32.67224318643356 -3.000000000000017 5.150000000000001
    vertex -32.90000000000002 -2.9999999999999947 6.000000000000013
  endloop
endfacet
facet normal 9.952822879580809e-17 -1.0 3.03222202424505e-16
  outer loop
    vertex -41.2 -3.0000000000000115 30.999999999999982
    vertex -32.90000000000002 -2.9999999999999947 6.000000000000013
    vertex -32.67224318643356 -3.0000000000000115 6.850000000000001
  endloop
endfacet
facet normal 9.952822879580809e-17 -1.0 3.03222202424505e-16
  outer loop
    vertex -41.2 -3.0000000000000115 30.999999999999982
    vertex -32.67224318643356 -3.0000000000000115 6.850000000000001
    vertex -32.05000000000001 -3.0000000000000058 7.472243186433556
  endloop
endfacet
facet normal 9.952822879580809e-17 -1.0 3.03222202424505e-16
  outer loop
    vertex -41.2 -3.0000000000000115 30.999999999999982
    vertex -32.05000000000001 -3.0000000000000058 7.472243186433556
    vertex -31.20000000000001 -3.0000000000000115 7.7
  endloop
endfacet
facet normal 9.952822879580809e-17 -1.0 3.03222202424505e-16
  outer loop
    vertex -41.2 -3.0000000000000115 30.999999999999982
    vertex -31.20000000000001 -3.0000000000000115 7.7
    vertex -32.05000000000001 -3.0000000000000115 23.527756813566448
  endloop
endfacet
facet normal 9.952822879580809e-17 -1.0 3.03222202424505e-16
  outer loop
    vertex -32.05000000000001 -3.0000000000000115 23.527756813566448
    vertex -31.20000000000001 -3.0000000000000115 7.7
    vertex -31.20000000000001 -3.0000000000000058 23.29999999999999
  endloop
endfacet
facet normal 9.952822879580809e-17 -1.0 3.03222202424505e-16
  outer loop
    vertex -31.20000000000001 -3.0000000000000058 23.29999999999999
    vertex -31.20000000000001 -3.0000000000000115 7.7
    vertex -21.20000000000001 -3.0000000000000058 23.29999999999999
  endloop
endfacet
facet normal 9.952822879580809e-17 -1.0 3.03222202424505e-16
  outer loop
    vertex -41.2 -3.0000000000000115 30.999999999999982
    vertex -32.05000000000001 -3.0000000000000115 23.527756813566448
    vertex -32.67224318643356 -3.0000000000000058 24.149999999999988
  endloop
endfacet
facet normal 9.952822879580809e-17 -1.0 3.03222202424505e-16
  outer loop
    vertex -41.2 -3.0000000000000115 30.999999999999982
    vertex -32.67224318643356 -3.0000000000000058 24.149999999999988
    vertex -32.90000000000002 -3.0000000000000058 24.99999999999999
  endloop
endfacet
facet normal 9.952822879580809e-17 -1.0 3.03222202424505e-16
  outer loop
    vertex -41.2 -3.0000000000000115 30.999999999999982
    vertex -32.90000000000002 -3.0000000000000058 24.99999999999999
    vertex -32.67224318643356 -3.0 25.84999999999998
  endloop
endfacet
facet normal 9.952822879580809e-17 -1.0 3.03222202424505e-16
  outer loop
    vertex -41.2 -3.0000000000000115 30.999999999999982
    vertex -32.67224318643356 -3.0 25.84999999999998
    vertex -32.05000000000001 -3.0000000000000115 26.472243186433534
  endloop
endfacet
facet normal 9.952822879580809e-17 -1.0 3.03222202424505e-16
  outer loop
    vertex -41.2 -3.0000000000000115 30.999999999999982
    vertex -32.05000000000001 -3.0000000000000115 26.472243186433534
    vertex -31.20000000000001 -3.0000000000000115 26.699999999999992
  endloop
endfacet
facet normal 9.952822879580809e-17 -1.0 3.03222202424505e-16
  outer loop
    vertex -22.050000000000008 -3.0000000000000058 23.52775681356646
    vertex -31.20000000000001 -3.0000000000000058 23.29999999999999
    vertex -21.20000000000001 -3.0000000000000058 23.29999999999999
  endloop
endfacet
facet normal 9.952822879580809e-17 -1.0 3.03222202424505e-16
  outer loop
    vertex -31.20000000000001 -3.0000000000000058 23.29999999999999
    vertex -22.050000000000008 -3.0000000000000058 23.52775681356646
    vertex -30.350000000000012 -3.0000000000000115 23.527756813566448
  endloop
endfacet
facet normal 9.952822879580809e-17 -1.0 3.03222202424505e-16
  outer loop
    vertex -30.350000000000012 -3.0000000000000115 23.527756813566448
    vertex -22.050000000000008 -3.0000000000000058 23.52775681356646
    vertex -29.727756813566458 -3.0000000000000058 24.149999999999988
  endloop
endfacet
facet normal 9.952822879580809e-17 -1.0 3.03222202424505e-16
  outer loop
    vertex -29.727756813566458 -3.0000000000000058 24.149999999999988
    vertex -22.050000000000008 -3.0000000000000058 23.52775681356646
    vertex -22.672243186433555 -3.0000000000000058 24.149999999999988
  endloop
endfacet
facet normal 9.952822879580809e-17 -1.0 3.03222202424505e-16
  outer loop
    vertex -29.727756813566458 -3.0000000000000058 24.149999999999988
    vertex -22.672243186433555 -3.0000000000000058 24.149999999999988
    vertex -22.90000000000001 -3.0 24.99999999999999
  endloop
endfacet
facet normal 9.952822879580809e-17 -1.0 3.03222202424505e-16
  outer loop
    vertex -29.727756813566458 -3.0000000000000058 24.149999999999988
    vertex -22.90000000000001 -3.0 24.99999999999999
    vertex -29.500000000000004 -3.0 24.99999999999999
  endloop
endfacet
facet normal 9.952822879580809e-17 -1.0 3.03222202424505e-16
  outer loop
    vertex -29.500000000000004 -3.0 24.99999999999999
    vertex -22.90000000000001 -3.0 24.99999999999999
    vertex -22.672243186433555 -3.0 25.84999999999999
  endloop
endfacet
facet normal 9.952822879580809e-17 -1.0 3.03222202424505e-16
  outer loop
    vertex -29.500000000000004 -3.0 24.99999999999999
    vertex -22.672243186433555 -3.0 25.84999999999999
    vertex -29.727756813566458 -3.0 25.84999999999998
  endloop
endfacet
facet normal 9.952822879580809e-17 -1.0 3.03222202424505e-16
  outer loop
    vertex -29.727756813566458 -3.0 25.84999999999998
    vertex -22.672243186433555 -3.0 25.84999999999999
    vertex -30.350000000000012 -3.0000000000000115 26.472243186433534
  endloop
endfacet
facet normal 9.952822879580809e-17 -1.0 3.03222202424505e-16
  outer loop
    vertex -30.350000000000012 -3.0000000000000115 26.472243186433534
    vertex -22.672243186433555 -3.0 25.84999999999999
    vertex -22.050000000000008 -3.0000000000000115 26.472243186433534
  endloop
endfacet
facet normal 9.952822879580809e-17 -1.0 3.03222202424505e-16
  outer loop
    vertex -30.350000000000012 -3.0000000000000115 26.472243186433534
    vertex -22.050000000000008 -3.0000000000000115 26.472243186433534
    vertex -21.20000000000001 -3.0000000000000115 26.699999999999992
  endloop
endfacet
facet normal 9.952822879580809e-17 -1.0 3.03222202424505e-16
  outer loop
    vertex -30.350000000000012 -3.0000000000000115 26.472243186433534
    vertex -21.20000000000001 -3.0000000000000115 26.699999999999992
    vertex -31.20000000000001 -3.0000000000000115 26.699999999999992
  endloop
endfacet
facet normal 9.952822879580809e-17 -1.0 3.03222202424505e-16
  outer loop
    vertex -22.05 -3.000000000000017 4.527756813566447
    vertex -31.20000000000001 -3.0 4.3000000000000025
    vertex -21.200000000000003 -3.0 4.3000000000000025
  endloop
endfacet
facet normal 9.952822879580809e-17 -1.0 3.03222202424505e-16
  outer loop
    vertex -31.20000000000001 -3.0 4.3000000000000025
    vertex -22.05 -3.000000000000017 4.527756813566447
    vertex -30.350000000000012 -3.0000000000000115 4.527756813566447
  endloop
endfacet
facet normal 9.952822879580809e-17 -1.0 3.03222202424505e-16
  outer loop
    vertex -30.350000000000012 -3.0000000000000115 4.527756813566447
    vertex -22.05 -3.000000000000017 4.527756813566447
    vertex -22.67224318643355 -3.0000000000000115 5.150000000000001
  endloop
endfacet
facet normal 9.952822879580809e-17 -1.0 3.03222202424505e-16
  outer loop
    vertex -30.350000000000012 -3.0000000000000115 4.527756813566447
    vertex -22.67224318643355 -3.0000000000000115 5.150000000000001
    vertex -29.727756813566458 -3.0000000000000115 5.150000000000001
  endloop
endfacet
facet normal 9.952822879580809e-17 -1.0 3.03222202424505e-16
  outer loop
    vertex -29.727756813566458 -3.0000000000000115 5.150000000000001
    vertex -22.67224318643355 -3.0000000000000115 5.150000000000001
    vertex -22.900000000000002 -2.9999999999999947 6.000000000000013
  endloop
endfacet
facet normal 9.952822879580809e-17 -1.0 3.03222202424505e-16
  outer loop
    vertex -29.727756813566458 -3.0000000000000115 5.150000000000001
    vertex -22.900000000000002 -2.9999999999999947 6.000000000000013
    vertex -29.500000000000004 -2.9999999999999947 6.000000000000013
  endloop
endfacet
facet normal 9.952822879580809e-17 -1.0 3.03222202424505e-16
  outer loop
    vertex -29.500000000000004 -2.9999999999999947 6.000000000000013
    vertex -22.900000000000002 -2.9999999999999947 6.000000000000013
    vertex -22.67224318643355 -3.0000000000000058 6.850000000000001
  endloop
endfacet
facet normal 9.952822879580809e-17 -1.0 3.03222202424505e-16
  outer loop
    vertex -29.500000000000004 -2.9999999999999947 6.000000000000013
    vertex -22.67224318643355 -3.0000000000000058 6.850000000000001
    vertex -29.727756813566458 -3.0000000000000058 6.850000000000001
  endloop
endfacet
facet normal 9.952822879580809e-17 -1.0 3.03222202424505e-16
  outer loop
    vertex -29.727756813566458 -3.0000000000000058 6.850000000000001
    vertex -22.67224318643355 -3.0000000000000058 6.850000000000001
    vertex -22.05 -3.0000000000000058 7.472243186433556
  endloop
endfacet
facet normal 9.952822879580809e-17 -1.0 3.03222202424505e-16
  outer loop
    vertex -29.727756813566458 -3.0000000000000058 6.850000000000001
    vertex -22.05 -3.0000000000000058 7.472243186433556
    vertex -30.350000000000012 -3.0000000000000058 7.472243186433556
  endloop
endfacet
facet normal 9.952822879580809e-17 -1.0 3.03222202424505e-16
  outer loop
    vertex -30.350000000000012 -3.0000000000000058 7.472243186433556
    vertex -22.05 -3.0000000000000058 7.472243186433556
    vertex -21.200000000000003 -3.0000000000000115 7.7
  endloop
endfacet
facet normal 9.952822879580809e-17 -1.0 3.03222202424505e-16
  outer loop
    vertex -30.350000000000012 -3.0000000000000058 7.472243186433556
    vertex -21.200000000000003 -3.0000000000000115 7.7
    vertex -31.20000000000001 -3.0000000000000115 7.7
  endloop
endfacet
facet normal -1.0 0.0 0.0
  outer loop
    vertex -19.359339206567004 -15.000000000000012 30.999999999999993
    vertex -19.359339206567004 -18.000000000000007 25.29395154035769
    vertex -19.359339206567004 -18.000000000000007 30.999999999999993
  endloop
endfacet
facet normal -1.0 0.0 0.0
  outer loop
    vertex -19.359339206567004 -18.000000000000007 25.29395154035769
    vertex -19.359339206567004 -15.000000000000012 30.999999999999993
    vertex -19.359339206567004 -15.000000000000012 25.293951540357675
  endloop
endfacet
facet normal -0.9659258262890675 -4.884514472975732e-16 0.258819045102524
  outer loop
    vertex -29.500000000000004 -3.0 24.99999999999999
    vertex -29.727756813566458 -1.127986593019159e-14 24.150000000000002
    vertex -29.727756813566458 -3.0000000000000058 24.149999999999988
  endloop
endfacet
facet normal -0.9659258262890675 -4.884514472975732e-16 0.258819045102524
  outer loop
    vertex -29.727756813566458 -1.127986593019159e-14 24.150000000000002
    vertex -29.500000000000004 -3.0 24.99999999999999
    vertex -29.500000000000004 -5.639932965095795e-15 24.99999999999999
  endloop
endfacet
facet normal 0.7071067811865476 0.0 -0.7071067811865476
  outer loop
    vertex -32.67224318643356 -3.0 25.84999999999998
    vertex -32.05000000000001 -5.639932965095795e-15 26.472243186433534
    vertex -32.05000000000001 -3.0000000000000115 26.472243186433534
  endloop
endfacet
facet normal 0.7071067811865476 0.0 -0.7071067811865476
  outer loop
    vertex -32.05000000000001 -5.639932965095795e-15 26.472243186433534
    vertex -32.67224318643356 -3.0 25.84999999999998
    vertex -32.67224318643356 -5.639932965095795e-15 25.84999999999998
  endloop
endfacet
facet normal -0.9659258262890699 -2.7530167207107843e-18 0.25881904510251513
  outer loop
    vertex -29.500000000000004 -2.9999999999999947 6.000000000000013
    vertex -29.727756813566458 -1.6919798895287383e-14 5.14999999999999
    vertex -29.727756813566458 -3.0000000000000115 5.150000000000001
  endloop
endfacet
facet normal -0.9659258262890699 -2.7530167207107843e-18 0.25881904510251513
  outer loop
    vertex -29.727756813566458 -1.6919798895287383e-14 5.14999999999999
    vertex -29.500000000000004 -2.9999999999999947 6.000000000000013
    vertex -29.500000000000004 -1.6919798895287383e-14 6.000000000000025
  endloop
endfacet
facet normal -4.1620563116752574e-16 4.527880600424783e-16 1.0
  outer loop
    vertex -46.20000000000002 -18.000000000000018 30.999999999999982
    vertex -41.2 -15.000000000000023 30.999999999999993
    vertex -46.20000000000002 -1.6919798895287383e-14 30.999999999999982
  endloop
endfacet
facet normal -4.1620563116752574e-16 4.527880600424783e-16 1.0
  outer loop
    vertex -41.2 -15.000000000000023 30.999999999999993
    vertex -46.20000000000002 -18.000000000000018 30.999999999999982
    vertex -33.04066079343302 -18.000000000000007 30.999999999999993
  endloop
endfacet
facet normal -4.1620563116752574e-16 4.527880600424783e-16 1.0
  outer loop
    vertex -41.2 -15.000000000000023 30.999999999999993
    vertex -33.04066079343302 -18.000000000000007 30.999999999999993
    vertex -33.04066079343302 -15.000000000000012 30.999999999999993
  endloop
endfacet
facet normal -4.1620563116752574e-16 4.527880600424783e-16 1.0
  outer loop
    vertex -46.20000000000002 -1.6919798895287383e-14 30.999999999999982
    vertex -41.2 -3.0000000000000115 30.999999999999982
    vertex -26.20000000000001 -1.127986593019159e-14 30.999999999999982
  endloop
endfacet
facet normal -4.1620563116752574e-16 4.527880600424783e-16 1.0
  outer loop
    vertex -41.2 -3.0000000000000115 30.999999999999982
    vertex -46.20000000000002 -1.6919798895287383e-14 30.999999999999982
    vertex -41.2 -15.000000000000023 30.999999999999993
  endloop
endfacet
facet normal -4.1620563116752574e-16 4.527880600424783e-16 1.0
  outer loop
    vertex -26.20000000000001 -1.127986593019159e-14 30.999999999999982
    vertex -41.2 -3.0000000000000115 30.999999999999982
    vertex -26.20000000000001 -3.0000000000000115 30.999999999999993
  endloop
endfacet
facet normal 0.2588190451025283 5.448314434438373e-15 0.9659258262890663
  outer loop
    vertex -31.20000000000001 -3.0 4.3000000000000025
    vertex -32.05000000000001 -1.127986593019159e-14 4.527756813566447
    vertex -32.05000000000001 -3.000000000000017 4.527756813566447
  endloop
endfacet
facet normal 0.2588190451025283 5.448314434438373e-15 0.9659258262890663
  outer loop
    vertex -32.05000000000001 -1.127986593019159e-14 4.527756813566447
    vertex -31.20000000000001 -3.0 4.3000000000000025
    vertex -31.20000000000001 -1.6919798895287383e-14 4.299999999999969
  endloop
endfacet
facet normal 0.7071067811865476 -0.0 0.7071067811865476
  outer loop
    vertex -32.05000000000001 -1.127986593019159e-14 4.527756813566447
    vertex -32.67224318643356 -3.000000000000017 5.150000000000001
    vertex -32.05000000000001 -3.000000000000017 4.527756813566447
  endloop
endfacet
facet normal 0.7071067811865476 -0.0 0.7071067811865476
  outer loop
    vertex -32.67224318643356 -3.000000000000017 5.150000000000001
    vertex -32.05000000000001 -1.127986593019159e-14 4.527756813566447
    vertex -32.67224318643356 -1.127986593019159e-14 5.150000000000001
  endloop
endfacet
facet normal -0.7071067811865444 -1.3354464339550702e-15 -0.7071067811865508
  outer loop
    vertex -29.727756813566458 -2.8199664825478976e-14 6.850000000000001
    vertex -30.350000000000012 -3.0000000000000058 7.472243186433556
    vertex -30.350000000000012 -1.6919798895287383e-14 7.472243186433545
  endloop
endfacet
facet normal -0.7071067811865444 -1.3354464339550702e-15 -0.7071067811865508
  outer loop
    vertex -30.350000000000012 -3.0000000000000058 7.472243186433556
    vertex -29.727756813566458 -2.8199664825478976e-14 6.850000000000001
    vertex -29.727756813566458 -3.0000000000000058 6.850000000000001
  endloop
endfacet
facet normal 0.7071067811865412 -2.659901539235614e-15 0.7071067811865539
  outer loop
    vertex -32.05000000000001 -3.0000000000000115 23.527756813566448
    vertex -32.67224318643356 -1.127986593019159e-14 24.150000000000002
    vertex -32.67224318643356 -3.0000000000000058 24.149999999999988
  endloop
endfacet
facet normal 0.7071067811865412 -2.659901539235614e-15 0.7071067811865539
  outer loop
    vertex -32.67224318643356 -1.127986593019159e-14 24.150000000000002
    vertex -32.05000000000001 -3.0000000000000115 23.527756813566448
    vertex -32.05000000000001 -1.6919798895287383e-14 23.52775681356646
  endloop
endfacet
facet normal -0.7071067811865476 0.0 -0.7071067811865476
  outer loop
    vertex -30.350000000000012 -5.639932965095795e-15 26.472243186433534
    vertex -29.727756813566458 -3.0 25.84999999999998
    vertex -30.350000000000012 -3.0000000000000115 26.472243186433534
  endloop
endfacet
facet normal -0.7071067811865476 0.0 -0.7071067811865476
  outer loop
    vertex -29.727756813566458 -3.0 25.84999999999998
    vertex -30.350000000000012 -5.639932965095795e-15 26.472243186433534
    vertex -29.727756813566458 -5.639932965095795e-15 25.84999999999998
  endloop
endfacet
facet normal 0.2588190451025045 -5.449411771324357e-15 -0.9659258262890728
  outer loop
    vertex -31.20000000000001 -1.6919798895287383e-14 7.699999999999977
    vertex -32.05000000000001 -3.0000000000000058 7.472243186433556
    vertex -32.05000000000001 -1.6919798895287383e-14 7.472243186433545
  endloop
endfacet
facet normal 0.2588190451025045 -5.449411771324357e-15 -0.9659258262890728
  outer loop
    vertex -32.05000000000001 -3.0000000000000058 7.472243186433556
    vertex -31.20000000000001 -1.6919798895287383e-14 7.699999999999977
    vertex -31.20000000000001 -3.0000000000000115 7.7
  endloop
endfacet
facet normal 0.2588190451025283 -1.813820768450279e-15 0.9659258262890663
  outer loop
    vertex -31.20000000000001 -3.0000000000000058 23.29999999999999
    vertex -32.05000000000001 -1.6919798895287383e-14 23.52775681356646
    vertex -32.05000000000001 -3.0000000000000115 23.527756813566448
  endloop
endfacet
facet normal 0.2588190451025283 -1.813820768450279e-15 0.9659258262890663
  outer loop
    vertex -32.05000000000001 -1.6919798895287383e-14 23.52775681356646
    vertex -31.20000000000001 -3.0000000000000058 23.29999999999999
    vertex -31.20000000000001 -1.6919798895287383e-14 23.29999999999999
  endloop
endfacet
facet normal -0.9517086177605508 -5.917376271025463e-16 0.30700277992275843
  outer loop
    vertex -46.20000000000002 -1.6919798895287383e-14 30.999999999999982
    vertex -54.59519270917697 -18.000000000000007 4.974902601551402
    vertex -46.20000000000002 -18.000000000000018 30.999999999999982
  endloop
endfacet
facet normal -0.9517086177605508 -5.917376271025463e-16 0.30700277992275843
  outer loop
    vertex -54.59519270917697 -18.000000000000007 4.974902601551402
    vertex -46.20000000000002 -1.6919798895287383e-14 30.999999999999982
    vertex -54.59519270917699 -2.8199664825478976e-14 4.974902601551402
  endloop
endfacet
facet normal -0.9659258262890675 0.0 -0.258819045102524
  outer loop
    vertex -29.727756813566458 -5.639932965095795e-15 25.84999999999998
    vertex -29.500000000000004 -3.0 24.99999999999999
    vertex -29.727756813566458 -3.0 25.84999999999998
  endloop
endfacet
facet normal -0.9659258262890675 0.0 -0.258819045102524
  outer loop
    vertex -29.500000000000004 -3.0 24.99999999999999
    vertex -29.727756813566458 -5.639932965095795e-15 25.84999999999998
    vertex -29.500000000000004 -5.639932965095795e-15 24.99999999999999
  endloop
endfacet
facet normal 0.9517086177605509 -2.8059816510991717e-16 -0.30700277992275876
  outer loop
    vertex -51.20000000000002 -15.000000000000012 -1.127986593019159e-14
    vertex -41.2 -3.0000000000000115 30.999999999999982
    vertex -41.2 -15.000000000000023 30.999999999999993
  endloop
endfacet
facet normal 0.9517086177605509 -2.8059816510991717e-16 -0.30700277992275876
  outer loop
    vertex -41.2 -3.0000000000000115 30.999999999999982
    vertex -51.20000000000002 -15.000000000000012 -1.127986593019159e-14
    vertex -51.20000000000002 -3.000000000000017 -2.255973186038318e-14
  endloop
endfacet
facet normal 0.9517086177605509 -4.2248794021085016e-16 0.30700277992275876
  outer loop
    vertex 2.195192709176982 -1.127986593019159e-14 4.974902601551402
    vertex -6.2000000000000055 -17.999999999999996 31.000000000000004
    vertex 2.1951927091769594 -17.999999999999996 4.974902601551413
  endloop
endfacet
facet normal 0.9517086177605509 -4.2248794021085016e-16 0.30700277992275876
  outer loop
    vertex -6.2000000000000055 -17.999999999999996 31.000000000000004
    vertex 2.195192709176982 -1.127986593019159e-14 4.974902601551402
    vertex -6.2000000000000055 0.0 30.999999999999993
  endloop
endfacet
facet normal -0.2588190451025045 -5.449411771324357e-15 -0.9659258262890728
  outer loop
    vertex -30.350000000000012 -1.6919798895287383e-14 7.472243186433545
    vertex -31.20000000000001 -3.0000000000000115 7.7
    vertex -31.20000000000001 -1.6919798895287383e-14 7.699999999999977
  endloop
endfacet
facet normal -0.2588190451025045 -5.449411771324357e-15 -0.9659258262890728
  outer loop
    vertex -31.20000000000001 -3.0000000000000115 7.7
    vertex -30.350000000000012 -1.6919798895287383e-14 7.472243186433545
    vertex -30.350000000000012 -3.0000000000000058 7.472243186433556
  endloop
endfacet
facet normal 0.9659258262890694 -4.9330239273117e-16 0.2588190451025167
  outer loop
    vertex -32.67224318643356 -1.127986593019159e-14 5.150000000000001
    vertex -32.90000000000002 -2.9999999999999947 6.000000000000013
    vertex -32.67224318643356 -3.000000000000017 5.150000000000001
  endloop
endfacet
facet normal 0.9659258262890694 -4.9330239273117e-16 0.2588190451025167
  outer loop
    vertex -32.90000000000002 -2.9999999999999947 6.000000000000013
    vertex -32.67224318643356 -1.127986593019159e-14 5.150000000000001
    vertex -32.90000000000002 -1.6919798895287383e-14 6.000000000000025
  endloop
endfacet
facet normal 0.9659258262890668 4.861406794549688e-16 -0.25881904510252696
  outer loop
    vertex -32.90000000000002 -2.9999999999999947 6.000000000000013
    vertex -32.67224318643356 -2.8199664825478976e-14 6.850000000000001
    vertex -32.67224318643356 -3.0000000000000115 6.850000000000001
  endloop
endfacet
facet normal 0.9659258262890668 4.861406794549688e-16 -0.25881904510252696
  outer loop
    vertex -32.67224318643356 -2.8199664825478976e-14 6.850000000000001
    vertex -32.90000000000002 -2.9999999999999947 6.000000000000013
    vertex -32.90000000000002 -1.6919798895287383e-14 6.000000000000025
  endloop
endfacet
facet normal 0.2588190451025163 -1.8118955916469484e-15 -0.9659258262890694
  outer loop
    vertex -31.20000000000001 -1.127986593019159e-14 26.699999999999978
    vertex -32.05000000000001 -3.0000000000000115 26.472243186433534
    vertex -32.05000000000001 -5.639932965095795e-15 26.472243186433534
  endloop
endfacet
facet normal 0.2588190451025163 -1.8118955916469484e-15 -0.9659258262890694
  outer loop
    vertex -32.05000000000001 -3.0000000000000115 26.472243186433534
    vertex -31.20000000000001 -1.127986593019159e-14 26.699999999999978
    vertex -31.20000000000001 -3.0000000000000115 26.699999999999992
  endloop
endfacet
facet normal -0.2588190451025283 -1.813820768450279e-15 0.9659258262890663
  outer loop
    vertex -30.350000000000012 -3.0000000000000115 23.527756813566448
    vertex -31.20000000000001 -1.6919798895287383e-14 23.29999999999999
    vertex -31.20000000000001 -3.0000000000000058 23.29999999999999
  endloop
endfacet
facet normal -0.2588190451025283 -1.813820768450279e-15 0.9659258262890663
  outer loop
    vertex -31.20000000000001 -1.6919798895287383e-14 23.29999999999999
    vertex -30.350000000000012 -3.0000000000000115 23.527756813566448
    vertex -30.350000000000012 -1.6919798895287383e-14 23.52775681356646
  endloop
endfacet
facet normal -0.7071067811865412 -2.659901539235614e-15 0.7071067811865539
  outer loop
    vertex -29.727756813566458 -3.0000000000000058 24.149999999999988
    vertex -30.350000000000012 -1.6919798895287383e-14 23.52775681356646
    vertex -30.350000000000012 -3.0000000000000115 23.527756813566448
  endloop
endfacet
facet normal -0.7071067811865412 -2.659901539235614e-15 0.7071067811865539
  outer loop
    vertex -30.350000000000012 -1.6919798895287383e-14 23.52775681356646
    vertex -29.727756813566458 -3.0000000000000058 24.149999999999988
    vertex -29.727756813566458 -1.127986593019159e-14 24.150000000000002
  endloop
endfacet
facet normal 0.7071067811865445 -1.3299507696178027e-15 -0.7071067811865507
  outer loop
    vertex -32.05000000000001 -1.6919798895287383e-14 7.472243186433545
    vertex -32.67224318643356 -3.0000000000000115 6.850000000000001
    vertex -32.67224318643356 -2.8199664825478976e-14 6.850000000000001
  endloop
endfacet
facet normal 0.7071067811865445 -1.3299507696178027e-15 -0.7071067811865507
  outer loop
    vertex -32.67224318643356 -3.0000000000000115 6.850000000000001
    vertex -32.05000000000001 -1.6919798895287383e-14 7.472243186433545
    vertex -32.05000000000001 -3.0000000000000058 7.472243186433556
  endloop
endfacet
facet normal -0.7071067811865476 2.6599015392355814e-15 0.7071067811865476
  outer loop
    vertex -29.727756813566458 -1.6919798895287383e-14 5.14999999999999
    vertex -30.350000000000012 -3.0000000000000115 4.527756813566447
    vertex -29.727756813566458 -3.0000000000000115 5.150000000000001
  endloop
endfacet
facet normal -0.7071067811865476 2.6599015392355814e-15 0.7071067811865476
  outer loop
    vertex -30.350000000000012 -3.0000000000000115 4.527756813566447
    vertex -29.727756813566458 -1.6919798895287383e-14 5.14999999999999
    vertex -30.350000000000012 -1.127986593019159e-14 4.527756813566436
  endloop
endfacet
facet normal 1.0 -0.0 -0.0
  outer loop
    vertex -33.04066079343302 -15.000000000000023 25.293951540357675
    vertex -33.04066079343302 -18.000000000000007 30.999999999999993
    vertex -33.04066079343302 -18.000000000000018 25.29395154035769
  endloop
endfacet
facet normal 1.0 -0.0 -0.0
  outer loop
    vertex -33.04066079343302 -18.000000000000007 30.999999999999993
    vertex -33.04066079343302 -15.000000000000023 25.293951540357675
    vertex -33.04066079343302 -15.000000000000012 30.999999999999993
  endloop
endfacet
facet normal -0.2588190451025163 -1.8118955916469484e-15 -0.9659258262890694
  outer loop
    vertex -30.350000000000012 -5.639932965095795e-15 26.472243186433534
    vertex -31.20000000000001 -3.0000000000000115 26.699999999999992
    vertex -31.20000000000001 -1.127986593019159e-14 26.699999999999978
  endloop
endfacet
facet normal -0.2588190451025163 -1.8118955916469484e-15 -0.9659258262890694
  outer loop
    vertex -31.20000000000001 -3.0000000000000115 26.699999999999992
    vertex -30.350000000000012 -5.639932965095795e-15 26.472243186433534
    vertex -30.350000000000012 -3.0000000000000115 26.472243186433534
  endloop
endfacet
facet normal -0.9659258262890694 -4.846978387498703e-16 0.2588190451025168
  outer loop
    vertex -19.5 -2.9999999999999947 6.000000000000013
    vertex -19.727756813566458 -1.127986593019159e-14 5.150000000000001
    vertex -19.727756813566458 -3.0000000000000115 5.150000000000001
  endloop
endfacet
facet normal -0.9659258262890694 -4.846978387498703e-16 0.2588190451025168
  outer loop
    vertex -19.727756813566458 -1.127986593019159e-14 5.150000000000001
    vertex -19.5 -2.9999999999999947 6.000000000000013
    vertex -19.5 -1.6919798895287383e-14 6.000000000000025
  endloop
endfacet
facet normal -0.9659258262890675 5.023697343190076e-18 -0.258819045102524
  outer loop
    vertex -19.72775681356646 -1.127986593019159e-14 25.84999999999999
    vertex -19.500000000000007 -2.9999999999999947 25.0
    vertex -19.72775681356646 -3.0 25.84999999999999
  endloop
endfacet
facet normal -0.9659258262890675 5.023697343190076e-18 -0.258819045102524
  outer loop
    vertex -19.500000000000007 -2.9999999999999947 25.0
    vertex -19.72775681356646 -1.127986593019159e-14 25.84999999999999
    vertex -19.500000000000007 0.0 25.0
  endloop
endfacet
facet normal 1.6198717684253536e-17 -1.0 1.9284802399801556e-16
  outer loop
    vertex -41.2 -18.000000000000018 0.0
    vertex -54.59519270917697 -18.000000000000007 4.974902601551402
    vertex -52.40000000000003 -18.00000000000003 -1.127986593019159e-14
  endloop
endfacet
facet normal 1.6198717684253536e-17 -1.0 1.9284802399801556e-16
  outer loop
    vertex -54.59519270917697 -18.000000000000007 4.974902601551402
    vertex -41.2 -18.000000000000018 0.0
    vertex -33.04066079343302 -18.000000000000018 25.29395154035769
  endloop
endfacet
facet normal 1.6198717684253536e-17 -1.0 1.9284802399801556e-16
  outer loop
    vertex -54.59519270917697 -18.000000000000007 4.974902601551402
    vertex -33.04066079343302 -18.000000000000018 25.29395154035769
    vertex -46.20000000000002 -18.000000000000018 30.999999999999982
  endloop
endfacet
facet normal 1.6198717684253536e-17 -1.0 1.9284802399801556e-16
  outer loop
    vertex -46.20000000000002 -18.000000000000018 30.999999999999982
    vertex -33.04066079343302 -18.000000000000018 25.29395154035769
    vertex -33.04066079343302 -18.000000000000007 30.999999999999993
  endloop
endfacet
facet normal 9.53512817646249e-17 -6.242966254735862e-16 -1.0
  outer loop
    vertex -52.40000000000003 -18.00000000000003 -1.127986593019159e-14
    vertex -51.20000000000002 -15.000000000000012 -1.127986593019159e-14
    vertex -41.2 -18.000000000000018 0.0
  endloop
endfacet
facet normal 9.53512817646249e-17 -6.242966254735862e-16 -1.0
  outer loop
    vertex -51.20000000000002 -15.000000000000012 -1.127986593019159e-14
    vertex -52.40000000000003 -18.00000000000003 -1.127986593019159e-14
    vertex -51.20000000000002 -3.000000000000017 -2.255973186038318e-14
  endloop
endfacet
facet normal 9.53512817646249e-17 -6.242966254735862e-16 -1.0
  outer loop
    vertex -41.2 -18.000000000000018 0.0
    vertex -51.20000000000002 -15.000000000000012 -1.127986593019159e-14
    vertex -41.2 -15.000000000000012 0.0
  endloop
endfacet
facet normal 9.53512817646249e-17 -6.242966254735862e-16 -1.0
  outer loop
    vertex -52.40000000000003 -2.255973186038318e-14 -1.127986593019159e-14
    vertex -51.20000000000002 -3.000000000000017 -2.255973186038318e-14
    vertex -52.40000000000003 -18.00000000000003 -1.127986593019159e-14
  endloop
endfacet
facet normal 9.53512817646249e-17 -6.242966254735862e-16 -1.0
  outer loop
    vertex -51.20000000000002 -3.000000000000017 -2.255973186038318e-14
    vertex -52.40000000000003 -2.255973186038318e-14 -1.127986593019159e-14
    vertex -26.199999999999996 0.0 0.0
  endloop
endfacet
facet normal 9.53512817646249e-17 -6.242966254735862e-16 -1.0
  outer loop
    vertex -51.20000000000002 -3.000000000000017 -2.255973186038318e-14
    vertex -26.199999999999996 0.0 0.0
    vertex -26.199999999999996 -3.000000000000017 -3.3839597790574766e-14
  endloop
endfacet
facet normal -0.9148918062735873 -5.731121963787853e-16 -0.4036991241177679
  outer loop
    vertex -54.59519270917697 -18.000000000000007 4.974902601551402
    vertex -52.40000000000003 -2.255973186038318e-14 -1.127986593019159e-14
    vertex -52.40000000000003 -18.00000000000003 -1.127986593019159e-14
  endloop
endfacet
facet normal -0.9148918062735873 -5.731121963787853e-16 -0.4036991241177679
  outer loop
    vertex -52.40000000000003 -2.255973186038318e-14 -1.127986593019159e-14
    vertex -54.59519270917697 -18.000000000000007 4.974902601551402
    vertex -54.59519270917699 -2.8199664825478976e-14 4.974902601551402
  endloop
endfacet
facet normal -3.724525317117924e-16 1.0 -5.639451319677731e-17
  outer loop
    vertex -54.59519270917699 -2.8199664825478976e-14 4.974902601551402
    vertex -26.199999999999996 0.0 0.0
    vertex -52.40000000000003 -2.255973186038318e-14 -1.127986593019159e-14
  endloop
endfacet
facet normal -3.724525317117924e-16 1.0 -5.639451319677731e-17
  outer loop
    vertex -26.199999999999996 0.0 0.0
    vertex -54.59519270917699 -2.8199664825478976e-14 4.974902601551402
    vertex 0.0 0.0 0.0
  endloop
endfacet
facet normal -3.724525317117924e-16 1.0 -5.639451319677731e-17
  outer loop
    vertex 0.0 0.0 0.0
    vertex -54.59519270917699 -2.8199664825478976e-14 4.974902601551402
    vertex -31.20000000000001 -1.6919798895287383e-14 4.299999999999969
  endloop
endfacet
facet normal -3.724525317117924e-16 1.0 -5.639451319677731e-17
  outer loop
    vertex -31.20000000000001 -1.6919798895287383e-14 4.299999999999969
    vertex -54.59519270917699 -2.8199664825478976e-14 4.974902601551402
    vertex -32.05000000000001 -1.127986593019159e-14 4.527756813566447
  endloop
endfacet
facet normal -3.724525317117924e-16 1.0 -5.639451319677731e-17
  outer loop
    vertex -32.05000000000001 -1.127986593019159e-14 4.527756813566447
    vertex -54.59519270917699 -2.8199664825478976e-14 4.974902601551402
    vertex -32.67224318643356 -1.127986593019159e-14 5.150000000000001
  endloop
endfacet
facet normal -3.724525317117924e-16 1.0 -5.639451319677731e-17
  outer loop
    vertex -32.67224318643356 -1.127986593019159e-14 5.150000000000001
    vertex -54.59519270917699 -2.8199664825478976e-14 4.974902601551402
    vertex -46.20000000000002 -1.6919798895287383e-14 30.999999999999982
  endloop
endfacet
facet normal -3.724525317117924e-16 1.0 -5.639451319677731e-17
  outer loop
    vertex -32.67224318643356 -1.127986593019159e-14 5.150000000000001
    vertex -46.20000000000002 -1.6919798895287383e-14 30.999999999999982
    vertex -32.90000000000002 -1.6919798895287383e-14 6.000000000000025
  endloop
endfacet
facet normal -3.724525317117924e-16 1.0 -5.639451319677731e-17
  outer loop
    vertex -32.90000000000002 -1.6919798895287383e-14 6.000000000000025
    vertex -46.20000000000002 -1.6919798895287383e-14 30.999999999999982
    vertex -32.67224318643356 -2.8199664825478976e-14 6.850000000000001
  endloop
endfacet
facet normal -3.724525317117924e-16 1.0 -5.639451319677731e-17
  outer loop
    vertex -32.67224318643356 -2.8199664825478976e-14 6.850000000000001
    vertex -46.20000000000002 -1.6919798895287383e-14 30.999999999999982
    vertex -32.05000000000001 -1.6919798895287383e-14 7.472243186433545
  endloop
endfacet
facet normal -3.724525317117924e-16 1.0 -5.639451319677731e-17
  outer loop
    vertex -32.05000000000001 -1.6919798895287383e-14 7.472243186433545
    vertex -46.20000000000002 -1.6919798895287383e-14 30.999999999999982
    vertex -31.20000000000001 -1.6919798895287383e-14 7.699999999999977
  endloop
endfacet
facet normal -3.724525317117924e-16 1.0 -5.639451319677731e-17
  outer loop
    vertex -31.20000000000001 -1.6919798895287383e-14 7.699999999999977
    vertex -46.20000000000002 -1.6919798895287383e-14 30.999999999999982
    vertex -21.20000000000001 -1.6919798895287383e-14 7.699999999999977
  endloop
endfacet
facet normal -3.724525317117924e-16 1.0 -5.639451319677731e-17
  outer loop
    vertex -21.20000000000001 -1.6919798895287383e-14 7.699999999999977
    vertex -46.20000000000002 -1.6919798895287383e-14 30.999999999999982
    vertex -32.05000000000001 -1.6919798895287383e-14 23.52775681356646
  endloop
endfacet
facet normal -3.724525317117924e-16 1.0 -5.639451319677731e-17
  outer loop
    vertex -21.20000000000001 -1.6919798895287383e-14 7.699999999999977
    vertex -32.05000000000001 -1.6919798895287383e-14 23.52775681356646
    vertex -31.20000000000001 -1.6919798895287383e-14 23.29999999999999
  endloop
endfacet
facet normal -3.724525317117924e-16 1.0 -5.639451319677731e-17
  outer loop
    vertex -32.05000000000001 -1.6919798895287383e-14 23.52775681356646
    vertex -46.20000000000002 -1.6919798895287383e-14 30.999999999999982
    vertex -32.67224318643356 -1.127986593019159e-14 24.150000000000002
  endloop
endfacet
facet normal -3.724525317117924e-16 1.0 -5.639451319677731e-17
  outer loop
    vertex -32.67224318643356 -1.127986593019159e-14 24.150000000000002
    vertex -46.20000000000002 -1.6919798895287383e-14 30.999999999999982
    vertex -32.90000000000002 -5.639932965095795e-15 25.0
  endloop
endfacet
facet normal -3.724525317117924e-16 1.0 -5.639451319677731e-17
  outer loop
    vertex -32.90000000000002 -5.639932965095795e-15 25.0
    vertex -46.20000000000002 -1.6919798895287383e-14 30.999999999999982
    vertex -32.67224318643356 -5.639932965095795e-15 25.84999999999998
  endloop
endfacet
facet normal -3.724525317117924e-16 1.0 -5.639451319677731e-17
  outer loop
    vertex -32.67224318643356 -5.639932965095795e-15 25.84999999999998
    vertex -46.20000000000002 -1.6919798895287383e-14 30.999999999999982
    vertex -32.05000000000001 -5.639932965095795e-15 26.472243186433534
  endloop
endfacet
facet normal -3.724525317117924e-16 1.0 -5.639451319677731e-17
  outer loop
    vertex -32.05000000000001 -5.639932965095795e-15 26.472243186433534
    vertex -46.20000000000002 -1.6919798895287383e-14 30.999999999999982
    vertex -31.20000000000001 -1.127986593019159e-14 26.699999999999978
  endloop
endfacet
facet normal -3.724525317117924e-16 1.0 -5.639451319677731e-17
  outer loop
    vertex -31.20000000000001 -1.127986593019159e-14 26.699999999999978
    vertex -46.20000000000002 -1.6919798895287383e-14 30.999999999999982
    vertex -21.20000000000001 -1.127986593019159e-14 26.699999999999992
  endloop
endfacet
facet normal -3.724525317117924e-16 1.0 -5.639451319677731e-17
  outer loop
    vertex 0.0 0.0 0.0
    vertex -21.200000000000003 -1.6919798895287383e-14 4.299999999999969
    vertex 2.195192709176982 -1.127986593019159e-14 4.974902601551402
  endloop
endfacet
facet normal -3.724525317117924e-16 1.0 -5.639451319677731e-17
  outer loop
    vertex -21.200000000000003 -1.6919798895287383e-14 4.299999999999969
    vertex 0.0 0.0 0.0
    vertex -31.20000000000001 -1.6919798895287383e-14 4.299999999999969
  endloop
endfacet
facet normal -3.724525317117924e-16 1.0 -5.639451319677731e-17
  outer loop
    vertex 2.195192709176982 -1.127986593019159e-14 4.974902601551402
    vertex -21.200000000000003 -1.6919798895287383e-14 4.299999999999969
    vertex -20.350000000000005 -1.127986593019159e-14 4.527756813566436
  endloop
endfacet
facet normal -3.724525317117924e-16 1.0 -5.639451319677731e-17
  outer loop
    vertex 2.195192709176982 -1.127986593019159e-14 4.974902601551402
    vertex -20.350000000000005 -1.127986593019159e-14 4.527756813566436
    vertex -19.727756813566458 -1.127986593019159e-14 5.150000000000001
  endloop
endfacet
facet normal -3.724525317117924e-16 1.0 -5.639451319677731e-17
  outer loop
    vertex 2.195192709176982 -1.127986593019159e-14 4.974902601551402
    vertex -19.727756813566458 -1.127986593019159e-14 5.150000000000001
    vertex -6.2000000000000055 0.0 30.999999999999993
  endloop
endfacet
facet normal -3.724525317117924e-16 1.0 -5.639451319677731e-17
  outer loop
    vertex -6.2000000000000055 0.0 30.999999999999993
    vertex -19.727756813566458 -1.127986593019159e-14 5.150000000000001
    vertex -19.5 -1.6919798895287383e-14 6.000000000000025
  endloop
endfacet
facet normal -3.724525317117924e-16 1.0 -5.639451319677731e-17
  outer loop
    vertex -6.2000000000000055 0.0 30.999999999999993
    vertex -19.5 -1.6919798895287383e-14 6.000000000000025
    vertex -19.727756813566458 -2.255973186038318e-14 6.850000000000013
  endloop
endfacet
facet normal -3.724525317117924e-16 1.0 -5.639451319677731e-17
  outer loop
    vertex -6.2000000000000055 0.0 30.999999999999993
    vertex -19.727756813566458 -2.255973186038318e-14 6.850000000000013
    vertex -20.350000000000005 -1.6919798895287383e-14 7.472243186433545
  endloop
endfacet
facet normal -3.724525317117924e-16 1.0 -5.639451319677731e-17
  outer loop
    vertex -6.2000000000000055 0.0 30.999999999999993
    vertex -20.350000000000005 -1.6919798895287383e-14 7.472243186433545
    vertex -21.20000000000001 -1.6919798895287383e-14 7.699999999999977
  endloop
endfacet
facet normal -3.724525317117924e-16 1.0 -5.639451319677731e-17
  outer loop
    vertex -6.2000000000000055 0.0 30.999999999999993
    vertex -21.20000000000001 -1.6919798895287383e-14 7.699999999999977
    vertex -20.350000000000012 -1.127986593019159e-14 23.52775681356646
  endloop
endfacet
facet normal -3.724525317117924e-16 1.0 -5.639451319677731e-17
  outer loop
    vertex -20.350000000000012 -1.127986593019159e-14 23.52775681356646
    vertex -21.20000000000001 -1.6919798895287383e-14 7.699999999999977
    vertex -21.20000000000001 -1.6919798895287383e-14 23.29999999999999
  endloop
endfacet
facet normal -3.724525317117924e-16 1.0 -5.639451319677731e-17
  outer loop
    vertex -21.20000000000001 -1.6919798895287383e-14 23.29999999999999
    vertex -21.20000000000001 -1.6919798895287383e-14 7.699999999999977
    vertex -31.20000000000001 -1.6919798895287383e-14 23.29999999999999
  endloop
endfacet
facet normal -3.724525317117924e-16 1.0 -5.639451319677731e-17
  outer loop
    vertex -6.2000000000000055 0.0 30.999999999999993
    vertex -20.350000000000012 -1.127986593019159e-14 23.52775681356646
    vertex -19.72775681356646 -1.127986593019159e-14 24.150000000000002
  endloop
endfacet
facet normal -3.724525317117924e-16 1.0 -5.639451319677731e-17
  outer loop
    vertex -6.2000000000000055 0.0 30.999999999999993
    vertex -19.72775681356646 -1.127986593019159e-14 24.150000000000002
    vertex -19.500000000000007 0.0 25.0
  endloop
endfacet
facet normal -3.724525317117924e-16 1.0 -5.639451319677731e-17
  outer loop
    vertex -6.2000000000000055 0.0 30.999999999999993
    vertex -19.500000000000007 0.0 25.0
    vertex -19.72775681356646 -1.127986593019159e-14 25.84999999999999
  endloop
endfacet
facet normal -3.724525317117924e-16 1.0 -5.639451319677731e-17
  outer loop
    vertex -6.2000000000000055 0.0 30.999999999999993
    vertex -19.72775681356646 -1.127986593019159e-14 25.84999999999999
    vertex -20.350000000000012 -5.639932965095795e-15 26.472243186433534
  endloop
endfacet
facet normal -3.724525317117924e-16 1.0 -5.639451319677731e-17
  outer loop
    vertex -6.2000000000000055 0.0 30.999999999999993
    vertex -20.350000000000012 -5.639932965095795e-15 26.472243186433534
    vertex -21.20000000000001 -1.127986593019159e-14 26.699999999999992
  endloop
endfacet
facet normal -3.724525317117924e-16 1.0 -5.639451319677731e-17
  outer loop
    vertex -6.2000000000000055 0.0 30.999999999999993
    vertex -21.20000000000001 -1.127986593019159e-14 26.699999999999992
    vertex -26.20000000000001 -1.127986593019159e-14 30.999999999999982
  endloop
endfacet
facet normal -3.724525317117924e-16 1.0 -5.639451319677731e-17
  outer loop
    vertex -26.20000000000001 -1.127986593019159e-14 30.999999999999982
    vertex -21.20000000000001 -1.127986593019159e-14 26.699999999999992
    vertex -46.20000000000002 -1.6919798895287383e-14 30.999999999999982
  endloop
endfacet
facet normal -3.724525317117924e-16 1.0 -5.639451319677731e-17
  outer loop
    vertex -30.350000000000012 -1.6919798895287383e-14 23.52775681356646
    vertex -21.20000000000001 -1.6919798895287383e-14 23.29999999999999
    vertex -31.20000000000001 -1.6919798895287383e-14 23.29999999999999
  endloop
endfacet
facet normal -3.724525317117924e-16 1.0 -5.639451319677731e-17
  outer loop
    vertex -21.20000000000001 -1.6919798895287383e-14 23.29999999999999
    vertex -30.350000000000012 -1.6919798895287383e-14 23.52775681356646
    vertex -22.050000000000008 -1.127986593019159e-14 23.52775681356646
  endloop
endfacet
facet normal -3.724525317117924e-16 1.0 -5.639451319677731e-17
  outer loop
    vertex -22.050000000000008 -1.127986593019159e-14 23.52775681356646
    vertex -30.350000000000012 -1.6919798895287383e-14 23.52775681356646
    vertex -29.727756813566458 -1.127986593019159e-14 24.150000000000002
  endloop
endfacet
facet normal -3.724525317117924e-16 1.0 -5.639451319677731e-17
  outer loop
    vertex -22.050000000000008 -1.127986593019159e-14 23.52775681356646
    vertex -29.727756813566458 -1.127986593019159e-14 24.150000000000002
    vertex -22.672243186433555 -1.127986593019159e-14 24.150000000000002
  endloop
endfacet
facet normal -3.724525317117924e-16 1.0 -5.639451319677731e-17
  outer loop
    vertex -22.672243186433555 -1.127986593019159e-14 24.150000000000002
    vertex -29.727756813566458 -1.127986593019159e-14 24.150000000000002
    vertex -29.500000000000004 -5.639932965095795e-15 24.99999999999999
  endloop
endfacet
facet normal -3.724525317117924e-16 1.0 -5.639451319677731e-17
  outer loop
    vertex -22.672243186433555 -1.127986593019159e-14 24.150000000000002
    vertex -29.500000000000004 -5.639932965095795e-15 24.99999999999999
    vertex -22.90000000000001 0.0 24.99999999999999
  endloop
endfacet
facet normal -3.724525317117924e-16 1.0 -5.639451319677731e-17
  outer loop
    vertex -22.90000000000001 0.0 24.99999999999999
    vertex -29.500000000000004 -5.639932965095795e-15 24.99999999999999
    vertex -29.727756813566458 -5.639932965095795e-15 25.84999999999998
  endloop
endfacet
facet normal -3.724525317117924e-16 1.0 -5.639451319677731e-17
  outer loop
    vertex -22.90000000000001 0.0 24.99999999999999
    vertex -29.727756813566458 -5.639932965095795e-15 25.84999999999998
    vertex -22.672243186433555 -1.127986593019159e-14 25.84999999999999
  endloop
endfacet
facet normal -3.724525317117924e-16 1.0 -5.639451319677731e-17
  outer loop
    vertex -22.672243186433555 -1.127986593019159e-14 25.84999999999999
    vertex -29.727756813566458 -5.639932965095795e-15 25.84999999999998
    vertex -30.350000000000012 -5.639932965095795e-15 26.472243186433534
  endloop
endfacet
facet normal -3.724525317117924e-16 1.0 -5.639451319677731e-17
  outer loop
    vertex -22.672243186433555 -1.127986593019159e-14 25.84999999999999
    vertex -30.350000000000012 -5.639932965095795e-15 26.472243186433534
    vertex -22.050000000000008 -5.639932965095795e-15 26.472243186433534
  endloop
endfacet
facet normal -3.724525317117924e-16 1.0 -5.639451319677731e-17
  outer loop
    vertex -22.050000000000008 -5.639932965095795e-15 26.472243186433534
    vertex -30.350000000000012 -5.639932965095795e-15 26.472243186433534
    vertex -31.20000000000001 -1.127986593019159e-14 26.699999999999978
  endloop
endfacet
facet normal -3.724525317117924e-16 1.0 -5.639451319677731e-17
  outer loop
    vertex -22.050000000000008 -5.639932965095795e-15 26.472243186433534
    vertex -31.20000000000001 -1.127986593019159e-14 26.699999999999978
    vertex -21.20000000000001 -1.127986593019159e-14 26.699999999999992
  endloop
endfacet
facet normal -3.724525317117924e-16 1.0 -5.639451319677731e-17
  outer loop
    vertex -30.350000000000012 -1.127986593019159e-14 4.527756813566436
    vertex -21.200000000000003 -1.6919798895287383e-14 4.299999999999969
    vertex -31.20000000000001 -1.6919798895287383e-14 4.299999999999969
  endloop
endfacet
facet normal -3.724525317117924e-16 1.0 -5.639451319677731e-17
  outer loop
    vertex -21.200000000000003 -1.6919798895287383e-14 4.299999999999969
    vertex -30.350000000000012 -1.127986593019159e-14 4.527756813566436
    vertex -22.05 -1.127986593019159e-14 4.527756813566447
  endloop
endfacet
facet normal -3.724525317117924e-16 1.0 -5.639451319677731e-17
  outer loop
    vertex -22.05 -1.127986593019159e-14 4.527756813566447
    vertex -30.350000000000012 -1.127986593019159e-14 4.527756813566436
    vertex -29.727756813566458 -1.6919798895287383e-14 5.14999999999999
  endloop
endfacet
facet normal -3.724525317117924e-16 1.0 -5.639451319677731e-17
  outer loop
    vertex -22.05 -1.127986593019159e-14 4.527756813566447
    vertex -29.727756813566458 -1.6919798895287383e-14 5.14999999999999
    vertex -22.67224318643355 -1.127986593019159e-14 5.150000000000001
  endloop
endfacet
facet normal -3.724525317117924e-16 1.0 -5.639451319677731e-17
  outer loop
    vertex -22.67224318643355 -1.127986593019159e-14 5.150000000000001
    vertex -29.727756813566458 -1.6919798895287383e-14 5.14999999999999
    vertex -29.500000000000004 -1.6919798895287383e-14 6.000000000000025
  endloop
endfacet
facet normal -3.724525317117924e-16 1.0 -5.639451319677731e-17
  outer loop
    vertex -22.67224318643355 -1.127986593019159e-14 5.150000000000001
    vertex -29.500000000000004 -1.6919798895287383e-14 6.000000000000025
    vertex -22.900000000000002 -1.6919798895287383e-14 6.000000000000025
  endloop
endfacet
facet normal -3.724525317117924e-16 1.0 -5.639451319677731e-17
  outer loop
    vertex -22.900000000000002 -1.6919798895287383e-14 6.000000000000025
    vertex -29.500000000000004 -1.6919798895287383e-14 6.000000000000025
    vertex -29.727756813566458 -2.8199664825478976e-14 6.850000000000001
  endloop
endfacet
facet normal -3.724525317117924e-16 1.0 -5.639451319677731e-17
  outer loop
    vertex -22.900000000000002 -1.6919798895287383e-14 6.000000000000025
    vertex -29.727756813566458 -2.8199664825478976e-14 6.850000000000001
    vertex -22.67224318643355 -2.8199664825478976e-14 6.850000000000001
  endloop
endfacet
facet normal -3.724525317117924e-16 1.0 -5.639451319677731e-17
  outer loop
    vertex -22.67224318643355 -2.8199664825478976e-14 6.850000000000001
    vertex -29.727756813566458 -2.8199664825478976e-14 6.850000000000001
    vertex -30.350000000000012 -1.6919798895287383e-14 7.472243186433545
  endloop
endfacet
facet normal -3.724525317117924e-16 1.0 -5.639451319677731e-17
  outer loop
    vertex -22.67224318643355 -2.8199664825478976e-14 6.850000000000001
    vertex -30.350000000000012 -1.6919798895287383e-14 7.472243186433545
    vertex -22.05 -1.6919798895287383e-14 7.472243186433545
  endloop
endfacet
facet normal -3.724525317117924e-16 1.0 -5.639451319677731e-17
  outer loop
    vertex -22.05 -1.6919798895287383e-14 7.472243186433545
    vertex -30.350000000000012 -1.6919798895287383e-14 7.472243186433545
    vertex -31.20000000000001 -1.6919798895287383e-14 7.699999999999977
  endloop
endfacet
facet normal -3.724525317117924e-16 1.0 -5.639451319677731e-17
  outer loop
    vertex -22.05 -1.6919798895287383e-14 7.472243186433545
    vertex -31.20000000000001 -1.6919798895287383e-14 7.699999999999977
    vertex -21.20000000000001 -1.6919798895287383e-14 7.699999999999977
  endloop
endfacet
facet normal -0.2588190451025283 -1.8167465370805662e-15 0.9659258262890663
  outer loop
    vertex -20.350000000000012 -3.0000000000000115 23.527756813566448
    vertex -21.20000000000001 -1.6919798895287383e-14 23.29999999999999
    vertex -21.20000000000001 -3.0000000000000058 23.29999999999999
  endloop
endfacet
facet normal -0.2588190451025283 -1.8167465370805662e-15 0.9659258262890663
  outer loop
    vertex -21.20000000000001 -1.6919798895287383e-14 23.29999999999999
    vertex -20.350000000000012 -3.0000000000000115 23.527756813566448
    vertex -20.350000000000012 -1.127986593019159e-14 23.52775681356646
  endloop
endfacet
facet normal 0.25881904510253423 -2.9257686302894837e-18 0.9659258262890646
  outer loop
    vertex -21.20000000000001 -3.0000000000000058 23.29999999999999
    vertex -22.050000000000008 -1.127986593019159e-14 23.52775681356646
    vertex -22.050000000000008 -3.0000000000000058 23.52775681356646
  endloop
endfacet
facet normal 0.25881904510253423 -2.9257686302894837e-18 0.9659258262890646
  outer loop
    vertex -22.050000000000008 -1.127986593019159e-14 23.52775681356646
    vertex -21.20000000000001 -3.0000000000000058 23.29999999999999
    vertex -21.20000000000001 -1.6919798895287383e-14 23.29999999999999
  endloop
endfacet
facet normal 0.7071067811865412 -1.3299507696178049e-15 0.7071067811865539
  outer loop
    vertex -22.050000000000008 -3.0000000000000058 23.52775681356646
    vertex -22.672243186433555 -1.127986593019159e-14 24.150000000000002
    vertex -22.672243186433555 -3.0000000000000058 24.149999999999988
  endloop
endfacet
facet normal 0.7071067811865412 -1.3299507696178049e-15 0.7071067811865539
  outer loop
    vertex -22.672243186433555 -1.127986593019159e-14 24.150000000000002
    vertex -22.050000000000008 -3.0000000000000058 23.52775681356646
    vertex -22.050000000000008 -1.127986593019159e-14 23.52775681356646
  endloop
endfacet
facet normal -0.7071067811865444 1.2390595841903836e-30 -0.7071067811865508
  outer loop
    vertex -19.727756813566458 -2.255973186038318e-14 6.850000000000013
    vertex -20.350000000000005 -3.0000000000000058 7.472243186433556
    vertex -20.350000000000005 -1.6919798895287383e-14 7.472243186433545
  endloop
endfacet
facet normal -0.7071067811865444 1.2390595841903836e-30 -0.7071067811865508
  outer loop
    vertex -20.350000000000005 -3.0000000000000058 7.472243186433556
    vertex -19.727756813566458 -2.255973186038318e-14 6.850000000000013
    vertex -19.727756813566458 -3.0000000000000058 6.850000000000001
  endloop
endfacet
facet normal -0.2588190451025036 -5.694821207813842e-15 -0.965925826289073
  outer loop
    vertex -20.350000000000005 -1.6919798895287383e-14 7.472243186433545
    vertex -21.200000000000003 -3.0000000000000115 7.7
    vertex -21.20000000000001 -1.6919798895287383e-14 7.699999999999977
  endloop
endfacet
facet normal -0.2588190451025036 -5.694821207813842e-15 -0.965925826289073
  outer loop
    vertex -21.200000000000003 -3.0000000000000115 7.7
    vertex -20.350000000000005 -1.6919798895287383e-14 7.472243186433545
    vertex -20.350000000000005 -3.0000000000000058 7.472243186433556
  endloop
endfacet
facet normal 0.9659258262890702 -4.846978387498629e-16 0.25881904510251375
  outer loop
    vertex -22.67224318643355 -1.127986593019159e-14 5.150000000000001
    vertex -22.900000000000002 -2.9999999999999947 6.000000000000013
    vertex -22.67224318643355 -3.0000000000000115 5.150000000000001
  endloop
endfacet
facet normal 0.9659258262890702 -4.846978387498629e-16 0.25881904510251375
  outer loop
    vertex -22.900000000000002 -2.9999999999999947 6.000000000000013
    vertex -22.67224318643355 -1.127986593019159e-14 5.150000000000001
    vertex -22.900000000000002 -1.6919798895287383e-14 6.000000000000025
  endloop
endfacet
facet normal -0.7071067811865444 -2.659901539235594e-15 0.7071067811865508
  outer loop
    vertex -19.72775681356646 -3.0000000000000058 24.149999999999988
    vertex -20.350000000000012 -1.127986593019159e-14 23.52775681356646
    vertex -20.350000000000012 -3.0000000000000115 23.527756813566448
  endloop
endfacet
facet normal -0.7071067811865444 -2.659901539235594e-15 0.7071067811865508
  outer loop
    vertex -20.350000000000012 -1.127986593019159e-14 23.52775681356646
    vertex -19.72775681356646 -3.0000000000000058 24.149999999999988
    vertex -19.72775681356646 -1.127986593019159e-14 24.150000000000002
  endloop
endfacet
facet normal 0.7071067811865508 1.2390595841903475e-30 0.7071067811865444
  outer loop
    vertex -22.05 -1.127986593019159e-14 4.527756813566447
    vertex -22.67224318643355 -3.0000000000000115 5.150000000000001
    vertex -22.05 -3.000000000000017 4.527756813566447
  endloop
endfacet
facet normal 0.7071067811865508 1.2390595841903475e-30 0.7071067811865444
  outer loop
    vertex -22.67224318643355 -3.0000000000000115 5.150000000000001
    vertex -22.05 -1.127986593019159e-14 4.527756813566447
    vertex -22.67224318643355 -1.127986593019159e-14 5.150000000000001
  endloop
endfacet
facet normal 0.25881904510252834 5.448314434438374e-15 0.9659258262890663
  outer loop
    vertex -21.200000000000003 -3.0 4.3000000000000025
    vertex -22.05 -1.127986593019159e-14 4.527756813566447
    vertex -22.05 -3.000000000000017 4.527756813566447
  endloop
endfacet
facet normal 0.25881904510252834 5.448314434438374e-15 0.9659258262890663
  outer loop
    vertex -22.05 -1.127986593019159e-14 4.527756813566447
    vertex -21.200000000000003 -3.0 4.3000000000000025
    vertex -21.200000000000003 -1.6919798895287383e-14 4.299999999999969
  endloop
endfacet
facet normal -0.9659258262890671 9.708385182048617e-16 -0.25881904510252535
  outer loop
    vertex -19.727756813566458 -2.255973186038318e-14 6.850000000000013
    vertex -19.5 -2.9999999999999947 6.000000000000013
    vertex -19.727756813566458 -3.0000000000000058 6.850000000000001
  endloop
endfacet
facet normal -0.9659258262890671 9.708385182048617e-16 -0.25881904510252535
  outer loop
    vertex -19.5 -2.9999999999999947 6.000000000000013
    vertex -19.727756813566458 -2.255973186038318e-14 6.850000000000013
    vertex -19.5 -1.6919798895287383e-14 6.000000000000025
  endloop
endfacet
facet normal 0.9659258262890682 -4.852561816987373e-16 0.25881904510252096
  outer loop
    vertex -22.672243186433555 -1.127986593019159e-14 24.150000000000002
    vertex -22.90000000000001 -3.0 24.99999999999999
    vertex -22.672243186433555 -3.0000000000000058 24.149999999999988
  endloop
endfacet
facet normal 0.9659258262890682 -4.852561816987373e-16 0.25881904510252096
  outer loop
    vertex -22.90000000000001 -3.0 24.99999999999999
    vertex -22.672243186433555 -1.127986593019159e-14 24.150000000000002
    vertex -22.90000000000001 0.0 24.99999999999999
  endloop
endfacet
facet normal -0.7071067811865539 1.3299507696177755e-15 0.7071067811865412
  outer loop
    vertex -19.727756813566458 -1.127986593019159e-14 5.150000000000001
    vertex -20.350000000000005 -3.0000000000000115 4.527756813566447
    vertex -19.727756813566458 -3.0000000000000115 5.150000000000001
  endloop
endfacet
facet normal -0.7071067811865539 1.3299507696177755e-15 0.7071067811865412
  outer loop
    vertex -20.350000000000005 -3.0000000000000115 4.527756813566447
    vertex -19.727756813566458 -1.127986593019159e-14 5.150000000000001
    vertex -20.350000000000005 -1.127986593019159e-14 4.527756813566436
  endloop
endfacet
facet normal -0.9659258262890684 -4.825999100369784e-16 0.25881904510252074
  outer loop
    vertex -19.500000000000007 -2.9999999999999947 25.0
    vertex -19.72775681356646 -1.127986593019159e-14 24.150000000000002
    vertex -19.72775681356646 -3.0000000000000058 24.149999999999988
  endloop
endfacet
facet normal -0.9659258262890684 -4.825999100369784e-16 0.25881904510252074
  outer loop
    vertex -19.72775681356646 -1.127986593019159e-14 24.150000000000002
    vertex -19.500000000000007 -2.9999999999999947 25.0
    vertex -19.500000000000007 0.0 25.0
  endloop
endfacet
facet normal 0.9659258262890675 4.909916248885845e-16 -0.258819045102524
  outer loop
    vertex -22.900000000000002 -2.9999999999999947 6.000000000000013
    vertex -22.67224318643355 -2.8199664825478976e-14 6.850000000000001
    vertex -22.67224318643355 -3.0000000000000058 6.850000000000001
  endloop
endfacet
facet normal 0.9659258262890675 4.909916248885845e-16 -0.258819045102524
  outer loop
    vertex -22.67224318643355 -2.8199664825478976e-14 6.850000000000001
    vertex -22.900000000000002 -2.9999999999999947 6.000000000000013
    vertex -22.900000000000002 -1.6919798895287383e-14 6.000000000000025
  endloop
endfacet
facet normal 0.25881904510250525 -5.20400233483487e-15 -0.9659258262890725
  outer loop
    vertex -21.20000000000001 -1.6919798895287383e-14 7.699999999999977
    vertex -22.05 -3.0000000000000058 7.472243186433556
    vertex -22.05 -1.6919798895287383e-14 7.472243186433545
  endloop
endfacet
facet normal 0.25881904510250525 -5.20400233483487e-15 -0.9659258262890725
  outer loop
    vertex -22.05 -3.0000000000000058 7.472243186433556
    vertex -21.20000000000001 -1.6919798895287383e-14 7.699999999999977
    vertex -21.200000000000003 -3.0000000000000115 7.7
  endloop
endfacet
facet normal -0.2588190451025224 7.262404699857213e-15 0.965925826289068
  outer loop
    vertex -20.350000000000005 -3.0000000000000115 4.527756813566447
    vertex -21.200000000000003 -1.6919798895287383e-14 4.299999999999969
    vertex -21.200000000000003 -3.0 4.3000000000000025
  endloop
endfacet
facet normal -0.2588190451025224 7.262404699857213e-15 0.965925826289068
  outer loop
    vertex -21.200000000000003 -1.6919798895287383e-14 4.299999999999969
    vertex -20.350000000000005 -3.0000000000000115 4.527756813566447
    vertex -20.350000000000005 -1.127986593019159e-14 4.527756813566436
  endloop
endfacet
facet normal 0.7071067811865476 -1.329950769617803e-15 -0.7071067811865476
  outer loop
    vertex -22.67224318643355 -2.8199664825478976e-14 6.850000000000001
    vertex -22.05 -3.0000000000000058 7.472243186433556
    vertex -22.67224318643355 -3.0000000000000058 6.850000000000001
  endloop
endfacet
facet normal 0.7071067811865476 -1.329950769617803e-15 -0.7071067811865476
  outer loop
    vertex -22.05 -3.0000000000000058 7.472243186433556
    vertex -22.67224318643355 -2.8199664825478976e-14 6.850000000000001
    vertex -22.05 -1.6919798895287383e-14 7.472243186433545
  endloop
endfacet
facet normal 0.9659258262890692 2.097928712901234e-18 -0.25881904510251774
  outer loop
    vertex -22.90000000000001 0.0 24.99999999999999
    vertex -22.672243186433555 -3.0 25.84999999999999
    vertex -22.90000000000001 -3.0 24.99999999999999
  endloop
endfacet
facet normal 0.9659258262890692 2.097928712901234e-18 -0.25881904510251774
  outer loop
    vertex -22.672243186433555 -3.0 25.84999999999999
    vertex -22.90000000000001 0.0 24.99999999999999
    vertex -22.672243186433555 -1.127986593019159e-14 25.84999999999999
  endloop
endfacet
facet normal 0.7071067811865442 -1.2708303427593583e-30 -0.7071067811865508
  outer loop
    vertex -22.050000000000008 -5.639932965095795e-15 26.472243186433534
    vertex -22.672243186433555 -3.0 25.84999999999999
    vertex -22.672243186433555 -1.127986593019159e-14 25.84999999999999
  endloop
endfacet
facet normal 0.7071067811865442 -1.2708303427593583e-30 -0.7071067811865508
  outer loop
    vertex -22.672243186433555 -3.0 25.84999999999999
    vertex -22.050000000000008 -5.639932965095795e-15 26.472243186433534
    vertex -22.050000000000008 -3.0000000000000115 26.472243186433534
  endloop
endfacet
facet normal 0.25881904510252235 4.850945433615567e-18 -0.965925826289068
  outer loop
    vertex -21.20000000000001 -1.127986593019159e-14 26.699999999999992
    vertex -22.050000000000008 -3.0000000000000115 26.472243186433534
    vertex -22.050000000000008 -5.639932965095795e-15 26.472243186433534
  endloop
endfacet
facet normal 0.25881904510252235 4.850945433615567e-18 -0.965925826289068
  outer loop
    vertex -22.050000000000008 -3.0000000000000115 26.472243186433534
    vertex -21.20000000000001 -1.127986593019159e-14 26.699999999999992
    vertex -21.20000000000001 -3.0000000000000115 26.699999999999992
  endloop
endfacet
facet normal -0.7071067811865442 -1.2708303427593583e-30 -0.7071067811865508
  outer loop
    vertex -19.72775681356646 -1.127986593019159e-14 25.84999999999999
    vertex -20.350000000000012 -3.0000000000000115 26.472243186433534
    vertex -20.350000000000012 -5.639932965095795e-15 26.472243186433534
  endloop
endfacet
facet normal -0.7071067811865442 -1.2708303427593583e-30 -0.7071067811865508
  outer loop
    vertex -20.350000000000012 -3.0000000000000115 26.472243186433534
    vertex -19.72775681356646 -1.127986593019159e-14 25.84999999999999
    vertex -19.72775681356646 -3.0 25.84999999999999
  endloop
endfacet
facet normal -0.25881904510252235 4.850945433615567e-18 -0.965925826289068
  outer loop
    vertex -20.350000000000012 -5.639932965095795e-15 26.472243186433534
    vertex -21.20000000000001 -3.0000000000000115 26.699999999999992
    vertex -21.20000000000001 -1.127986593019159e-14 26.699999999999992
  endloop
endfacet
facet normal -0.25881904510252235 4.850945433615567e-18 -0.965925826289068
  outer loop
    vertex -21.20000000000001 -3.0000000000000115 26.699999999999992
    vertex -20.350000000000012 -5.639932965095795e-15 26.472243186433534
    vertex -20.350000000000012 -3.0000000000000115 26.472243186433534
  endloop
endfacet
endsolid tool 2
