solid gift_card_box
facet normal -1.0 0.0 0.0
outer loop
vertex -2.0 145.837393003877 12.0
vertex -2.0 84.8373930038769 2.0
vertex -2.0 84.8373930038769 12.0
endloop
endfacet
facet normal -1.0 0.0 0.0
outer loop
vertex -2.0 84.8373930038769 2.0
vertex -2.0 145.837393003877 12.0
vertex -2.0 145.837393003877 2.0
endloop
endfacet
facet normal 1.0 0.0 0.0
outer loop
vertex 90.0 145.837393003877 2.0
vertex 90.0 84.8373930038769 12.0
vertex 90.0 84.8373930038769 2.0
endloop
endfacet
facet normal 1.0 0.0 0.0
outer loop
vertex 90.0 84.8373930038769 12.0
vertex 90.0 145.837393003877 2.0
vertex 90.0 145.837393003877 12.0
endloop
endfacet
facet normal 0.0 0.0 -1.0
outer loop
vertex -2.0 145.837393003877 2.0
vertex 1.76247905159244e-015 143.837393003877 2.0
vertex -2.0 84.8373930038769 2.0
endloop
endfacet
facet normal 0.0 0.0 -1.0
outer loop
vertex 1.76247905159244e-015 143.837393003877 2.0
vertex -2.0 145.837393003877 2.0
vertex 90.0 145.837393003877 2.0
endloop
endfacet
facet normal 0.0 0.0 -1.0
outer loop
vertex 1.76247905159244e-015 143.837393003877 2.0
vertex 90.0 145.837393003877 2.0
vertex 88.0 143.837393003877 2.0
endloop
endfacet
facet normal 0.0 0.0 -1.0
outer loop
vertex 88.0 143.837393003877 2.0
vertex 90.0 145.837393003877 2.0
vertex 88.0 86.8373930038769 2.0
endloop
endfacet
facet normal 0.0 0.0 -1.0
outer loop
vertex -2.0 84.8373930038769 2.0
vertex 1.76247905159244e-015 86.8373930038769 2.0
vertex 90.0 84.8373930038769 2.0
endloop
endfacet
facet normal 0.0 0.0 -1.0
outer loop
vertex 1.76247905159244e-015 86.8373930038769 2.0
vertex -2.0 84.8373930038769 2.0
vertex 1.76247905159244e-015 143.837393003877 2.0
endloop
endfacet
facet normal 0.0 0.0 -1.0
outer loop
vertex 90.0 84.8373930038769 2.0
vertex 1.76247905159244e-015 86.8373930038769 2.0
vertex 88.0 86.8373930038769 2.0
endloop
endfacet
facet normal 0.0 0.0 -1.0
outer loop
vertex 90.0 84.8373930038769 2.0
vertex 88.0 86.8373930038769 2.0
vertex 90.0 145.837393003877 2.0
endloop
endfacet
facet normal 0.0 1.0 0.0
outer loop
vertex -2.0 145.837393003877 12.0
vertex 90.0 145.837393003877 2.0
vertex -2.0 145.837393003877 2.0
endloop
endfacet
facet normal 0.0 1.0 0.0
outer loop
vertex 90.0 145.837393003877 2.0
vertex -2.0 145.837393003877 12.0
vertex 90.0 145.837393003877 12.0
endloop
endfacet
facet normal 0.0 1.0 0.0
outer loop
vertex 1.76247905159244e-015 86.8373930038769 12.0
vertex 88.0 86.8373930038769 2.0
vertex 1.76247905159244e-015 86.8373930038769 2.0
endloop
endfacet
facet normal 0.0 1.0 0.0
outer loop
vertex 88.0 86.8373930038769 2.0
vertex 1.76247905159244e-015 86.8373930038769 12.0
vertex 88.0 86.8373930038769 12.0
endloop
endfacet
facet normal -0.0 -1.0 -0.0
outer loop
vertex 90.0 84.8373930038769 12.0
vertex -2.0 84.8373930038769 2.0
vertex 90.0 84.8373930038769 2.0
endloop
endfacet
facet normal -0.0 -1.0 -0.0
outer loop
vertex -2.0 84.8373930038769 2.0
vertex 90.0 84.8373930038769 12.0
vertex -2.0 84.8373930038769 12.0
endloop
endfacet
facet normal -0.0 -1.0 -0.0
outer loop
vertex 88.0 143.837393003877 12.0
vertex 1.76247905159244e-015 143.837393003877 2.0
vertex 88.0 143.837393003877 2.0
endloop
endfacet
facet normal -0.0 -1.0 -0.0
outer loop
vertex 1.76247905159244e-015 143.837393003877 2.0
vertex 88.0 143.837393003877 12.0
vertex 1.76247905159244e-015 143.837393003877 12.0
endloop
endfacet
facet normal 1.0 0.0 0.0
outer loop
vertex 1.76247905159244e-015 143.837393003877 2.0
vertex 1.76247905159244e-015 86.8373930038769 12.0
vertex 1.76247905159244e-015 86.8373930038769 2.0
endloop
endfacet
facet normal 1.0 0.0 0.0
outer loop
vertex 1.76247905159244e-015 86.8373930038769 12.0
vertex 1.76247905159244e-015 143.837393003877 2.0
vertex 1.76247905159244e-015 143.837393003877 12.0
endloop
endfacet
facet normal -1.0 0.0 0.0
outer loop
vertex 88.0 143.837393003877 12.0
vertex 88.0 86.8373930038769 2.0
vertex 88.0 86.8373930038769 12.0
endloop
endfacet
facet normal -1.0 0.0 0.0
outer loop
vertex 88.0 86.8373930038769 2.0
vertex 88.0 143.837393003877 12.0
vertex 88.0 143.837393003877 2.0
endloop
endfacet
facet normal 0.0 0.0 1.0
outer loop
vertex -2.0 84.8373930038769 12.0
vertex 1.76247905159244e-015 86.8373930038769 12.0
vertex -2.0 145.837393003877 12.0
endloop
endfacet
facet normal 0.0 0.0 1.0
outer loop
vertex 1.76247905159244e-015 86.8373930038769 12.0
vertex -2.0 84.8373930038769 12.0
vertex 90.0 84.8373930038769 12.0
endloop
endfacet
facet normal 0.0 0.0 1.0
outer loop
vertex 1.76247905159244e-015 86.8373930038769 12.0
vertex 90.0 84.8373930038769 12.0
vertex 88.0 86.8373930038769 12.0
endloop
endfacet
facet normal 0.0 0.0 1.0
outer loop
vertex 88.0 86.8373930038769 12.0
vertex 90.0 84.8373930038769 12.0
vertex 88.0 143.837393003877 12.0
endloop
endfacet
facet normal 0.0 0.0 1.0
outer loop
vertex -2.0 145.837393003877 12.0
vertex 1.76247905159244e-015 143.837393003877 12.0
vertex 90.0 145.837393003877 12.0
endloop
endfacet
facet normal 0.0 0.0 1.0
outer loop
vertex 1.76247905159244e-015 143.837393003877 12.0
vertex -2.0 145.837393003877 12.0
vertex 1.76247905159244e-015 86.8373930038769 12.0
endloop
endfacet
facet normal 0.0 0.0 1.0
outer loop
vertex 90.0 145.837393003877 12.0
vertex 1.76247905159244e-015 143.837393003877 12.0
vertex 88.0 143.837393003877 12.0
endloop
endfacet
facet normal 0.0 0.0 1.0
outer loop
vertex 90.0 145.837393003877 12.0
vertex 88.0 143.837393003877 12.0
vertex 90.0 84.8373930038769 12.0
endloop
endfacet
facet normal 1.0 0.0 0.0
outer loop
vertex 90.0 145.837393003877 3.13079171759589e-031
vertex 90.0 84.8373930038769 2.0
vertex 90.0 84.8373930038769 3.13079171759589e-031
endloop
endfacet
facet normal 1.0 0.0 0.0
outer loop
vertex 90.0 84.8373930038769 2.0
vertex 90.0 145.837393003877 3.13079171759589e-031
vertex 90.0 145.837393003877 2.0
endloop
endfacet
facet normal 0.0 1.0 0.0
outer loop
vertex -2.0 145.837393003877 2.0
vertex 90.0 145.837393003877 3.13079171759589e-031
vertex -2.0 145.837393003877 3.13079171759589e-031
endloop
endfacet
facet normal 0.0 1.0 0.0
outer loop
vertex 90.0 145.837393003877 3.13079171759589e-031
vertex -2.0 145.837393003877 2.0
vertex 90.0 145.837393003877 2.0
endloop
endfacet
facet normal -1.0 0.0 0.0
outer loop
vertex -2.0 145.837393003877 2.0
vertex -2.0 84.8373930038769 3.13079171759589e-031
vertex -2.0 84.8373930038769 2.0
endloop
endfacet
facet normal -1.0 0.0 0.0
outer loop
vertex -2.0 84.8373930038769 3.13079171759589e-031
vertex -2.0 145.837393003877 2.0
vertex -2.0 145.837393003877 3.13079171759589e-031
endloop
endfacet
facet normal 0.0 0.0 -1.0
outer loop
vertex 90.0 145.837393003877 3.13079171759589e-031
vertex -2.0 84.8373930038769 3.13079171759589e-031
vertex -2.0 145.837393003877 3.13079171759589e-031
endloop
endfacet
facet normal 0.0 0.0 -1.0
outer loop
vertex -2.0 84.8373930038769 3.13079171759589e-031
vertex 90.0 145.837393003877 3.13079171759589e-031
vertex 90.0 84.8373930038769 3.13079171759589e-031
endloop
endfacet
facet normal -0.0 -1.0 -0.0
outer loop
vertex 90.0 84.8373930038769 2.0
vertex -2.0 84.8373930038769 3.13079171759589e-031
vertex 90.0 84.8373930038769 3.13079171759589e-031
endloop
endfacet
facet normal -0.0 -1.0 -0.0
outer loop
vertex -2.0 84.8373930038769 3.13079171759589e-031
vertex 90.0 84.8373930038769 2.0
vertex -2.0 84.8373930038769 2.0
endloop
endfacet
facet normal 0.0 0.0 1.0
outer loop
vertex 90.0 84.8373930038769 2.0
vertex -2.0 145.837393003877 2.0
vertex -2.0 84.8373930038769 2.0
endloop
endfacet
facet normal 0.0 0.0 1.0
outer loop
vertex -2.0 145.837393003877 2.0
vertex 90.0 84.8373930038769 2.0
vertex 90.0 145.837393003877 2.0
endloop
endfacet
endsolid gift_card_box
